<svg xmlns="http://www.w3.org/2000/svg" width="225" height="102" viewBox="0 0 225 102" fill="none">
    <path d="M81.8502 52.389V51.9792C81.8502 50.9682 81.495 50.1758 80.8119 49.6293C80.1288 49.0555 79.2544 48.7823 78.1614 48.7823C77.3144 48.7823 76.6586 48.9189 76.1668 49.2194C75.7023 49.4927 75.2651 49.9025 74.8279 50.4764C74.6913 50.6403 74.5547 50.7496 74.418 50.8316C74.2814 50.8862 74.0628 50.9135 73.8169 50.9135H72.8606C72.642 50.9135 72.4234 50.8316 72.2321 50.6676C72.0682 50.5037 71.9862 50.3124 72.0135 50.0665C72.0682 49.438 72.3961 48.8369 72.9425 48.2358C73.5163 47.6073 74.2541 47.1155 75.1831 46.7056C76.1121 46.3231 77.0958 46.1045 78.1614 46.1045C80.1288 46.1045 81.7136 46.651 82.9158 47.7166C84.1454 48.8096 84.7466 50.3124 84.7466 52.2524V61.7612C84.7466 61.9798 84.6646 62.1984 84.5006 62.3623C84.3367 62.5263 84.1181 62.6083 83.8995 62.6083H82.7246C82.506 62.6083 82.2874 62.5263 82.1234 62.3623C81.9595 62.1984 81.8775 62.0071 81.8775 61.7612V60.477C81.5496 61.2147 80.8119 61.8159 79.7189 62.2531C78.626 62.6902 77.533 62.9088 76.44 62.9088C75.3744 62.9088 74.418 62.7176 73.571 62.335C72.7239 61.9525 72.0682 61.406 71.6037 60.7502C71.1665 60.0944 70.9479 59.3294 70.9479 58.5096C70.9479 56.9522 71.549 55.7499 72.7239 54.8755C73.8989 53.9738 75.4837 53.3727 77.451 53.0721L81.8502 52.389ZM81.8502 54.9029L78.1068 55.504C76.7406 55.7226 75.6749 56.0505 74.9099 56.5423C74.1448 57.0068 73.7623 57.5806 73.7623 58.2911C73.7623 58.8102 74.0082 59.2747 74.5 59.6846C74.9918 60.0944 75.7296 60.313 76.7133 60.313C78.2434 60.313 79.473 59.8758 80.402 59.0288C81.3584 58.1818 81.8229 57.0615 81.8229 55.6953V54.9029H81.8502Z" fill="#475173"/>
    <path d="M92.2333 61.816C92.2333 62.0346 92.1513 62.2532 91.9874 62.4171C91.8234 62.5811 91.6048 62.6631 91.3862 62.6631H90.2113C89.9927 62.6631 89.7741 62.5811 89.6102 62.4171C89.4462 62.2532 89.3643 62.0619 89.3643 61.816V41.3776C89.3643 41.159 89.4462 40.9404 89.6102 40.7764C89.7741 40.6125 89.9927 40.5305 90.2113 40.5305H91.3862C91.6048 40.5305 91.8234 40.6125 91.9874 40.7764C92.1513 40.9404 92.2333 41.1317 92.2333 41.3776V61.816Z" fill="#475173"/>
    <path d="M103.627 60.2857C105.731 60.2857 107.152 59.466 107.89 57.8539C108.027 57.5533 108.191 57.3347 108.327 57.1981C108.464 57.0615 108.682 57.0068 108.928 57.0068H109.885C110.103 57.0068 110.322 57.0888 110.486 57.2528C110.65 57.3894 110.732 57.5806 110.732 57.7719C110.732 58.4823 110.458 59.2474 109.885 60.0398C109.311 60.8595 108.491 61.5426 107.426 62.0891C106.36 62.6629 105.076 62.9362 103.627 62.9362C102.125 62.9362 100.84 62.6356 99.7474 62.0072C98.6545 61.3787 97.8074 60.5316 97.2063 59.466C96.6052 58.373 96.2773 57.1435 96.2226 55.7773C96.1953 55.5313 96.1953 55.0395 96.1953 54.3564C96.1953 53.8646 96.1953 53.5093 96.2226 53.2908C96.4139 51.1595 97.1517 49.4381 98.4086 48.1265C99.6655 46.7876 101.414 46.1318 103.627 46.1318C105.076 46.1318 106.333 46.4051 107.398 46.9789C108.464 47.5254 109.284 48.1811 109.83 49.0009C110.404 49.7933 110.704 50.531 110.759 51.2414C110.786 51.46 110.704 51.6786 110.513 51.8426C110.349 52.0065 110.131 52.0885 109.912 52.0885H108.956C108.71 52.0885 108.491 52.0338 108.355 51.8972C108.218 51.7606 108.054 51.542 107.917 51.2414C107.18 49.6293 105.759 48.8096 103.655 48.8096C102.507 48.8096 101.469 49.1921 100.622 49.9572C99.7474 50.7223 99.2556 51.8972 99.1463 53.4547C99.119 53.6733 99.119 54.0558 99.119 54.575C99.119 55.0395 99.119 55.3947 99.1463 55.6406C99.2829 57.1981 99.8021 58.373 100.622 59.1381C101.469 59.9032 102.48 60.2857 103.627 60.2857Z" fill="#475173"/>
    <path d="M129.148 61.816C129.148 62.0346 129.066 62.2532 128.902 62.4171C128.738 62.5811 128.52 62.6631 128.301 62.6631H127.126C126.908 62.6631 126.689 62.5811 126.525 62.4171C126.361 62.2532 126.279 62.0619 126.279 61.816V53.5914C126.279 52.034 125.897 50.859 125.104 50.0393C124.312 49.2196 123.246 48.8371 121.853 48.8371C120.487 48.8371 119.394 49.2469 118.601 50.0393C117.809 50.859 117.426 52.034 117.426 53.5914V61.816C117.426 62.0346 117.344 62.2532 117.18 62.4171C117.016 62.5811 116.798 62.6631 116.579 62.6631H115.404C115.186 62.6631 114.967 62.5811 114.803 62.4171C114.639 62.2532 114.557 62.0619 114.557 61.816V41.3776C114.557 41.159 114.639 40.9404 114.803 40.7764C114.967 40.6125 115.186 40.5305 115.404 40.5305H116.579C116.798 40.5305 117.016 40.6125 117.18 40.7764C117.344 40.9404 117.426 41.1317 117.426 41.3776V48.2632C117.891 47.6621 118.519 47.1703 119.312 46.7604C120.131 46.3506 121.142 46.132 122.317 46.132C123.656 46.132 124.831 46.4052 125.869 46.979C126.908 47.5528 127.7 48.3452 128.274 49.4109C128.875 50.4492 129.148 51.6788 129.148 53.1269V61.816Z" fill="#475173"/>
    <path d="M140.242 46.1318C142.51 46.1318 144.286 46.8423 145.597 48.2631C146.909 49.684 147.565 51.5967 147.565 54.0285V54.8756C147.565 55.0941 147.483 55.3127 147.319 55.4767C147.155 55.6406 146.936 55.7226 146.718 55.7226H135.843V55.9139C135.897 57.2801 136.307 58.373 137.1 59.1654C137.919 59.9305 138.985 60.3131 140.269 60.3131C141.335 60.3131 142.127 60.1764 142.701 59.9032C143.302 59.63 143.821 59.2474 144.286 58.7556C144.45 58.5916 144.614 58.4823 144.723 58.4004C144.86 58.3457 145.051 58.3184 145.297 58.3184H146.253C146.499 58.3184 146.718 58.4004 146.882 58.5643C147.046 58.7283 147.128 58.9195 147.1 59.1654C147.018 59.7392 146.69 60.3131 146.144 60.9142C145.625 61.488 144.86 62.0072 143.821 62.417C142.838 62.7996 141.635 63.0181 140.242 63.0181C138.903 63.0181 137.701 62.7176 136.635 62.1164C135.57 61.488 134.75 60.6409 134.094 59.5753C133.493 58.4823 133.11 57.2801 132.974 55.9412C132.919 55.3127 132.919 54.8482 132.919 54.5203C132.919 54.1924 132.946 53.7006 132.974 53.0995C133.11 51.8153 133.466 50.6403 134.094 49.602C134.722 48.5637 135.57 47.744 136.58 47.1428C137.646 46.4324 138.876 46.1318 140.242 46.1318ZM144.696 53.0995V53.0175C144.696 51.7606 144.286 50.7496 143.466 49.9845C142.674 49.2195 141.581 48.8369 140.242 48.8369C139.012 48.8369 137.974 49.2195 137.1 49.9845C136.253 50.7496 135.815 51.7606 135.815 53.0175V53.0995H144.696Z" fill="#475173"/>
    <path d="M154.232 48.2631C154.751 47.6073 155.297 47.1155 155.953 46.733C156.582 46.3504 157.429 46.1318 158.494 46.1318C160.954 46.1318 162.702 47.0335 163.686 48.8369C164.287 47.9626 164.998 47.3068 165.763 46.8423C166.555 46.3778 167.566 46.1318 168.823 46.1318C170.9 46.1318 172.43 46.733 173.413 47.9625C174.424 49.1921 174.944 50.9136 174.944 53.1541V61.7886C174.944 62.0071 174.862 62.2257 174.698 62.3897C174.534 62.5536 174.315 62.6356 174.096 62.6356H172.922C172.703 62.6356 172.484 62.5536 172.32 62.3897C172.156 62.2257 172.074 62.0345 172.074 61.7886V53.482C172.074 50.3671 170.818 48.8096 168.331 48.8096C167.183 48.8096 166.282 49.1921 165.599 49.9299C164.916 50.6676 164.588 51.7879 164.588 53.2634V61.7886C164.588 62.0071 164.506 62.2257 164.342 62.3897C164.178 62.5536 163.959 62.6356 163.741 62.6356H162.566C162.347 62.6356 162.129 62.5536 161.965 62.3897C161.801 62.2257 161.719 62.0345 161.719 61.7886V53.482C161.719 50.3671 160.462 48.8096 157.975 48.8096C156.828 48.8096 155.926 49.1921 155.243 49.9299C154.56 50.6676 154.232 51.7879 154.232 53.2634V61.7886C154.232 62.0071 154.15 62.2257 153.986 62.3897C153.822 62.5536 153.603 62.6356 153.385 62.6356H152.21C151.991 62.6356 151.773 62.5536 151.609 62.3897C151.445 62.2257 151.363 62.0345 151.363 61.7886V47.2794C151.363 47.0609 151.445 46.8423 151.609 46.6783C151.773 46.5144 151.991 46.4324 152.21 46.4324H153.385C153.603 46.4324 153.822 46.5144 153.986 46.6783C154.15 46.8423 154.232 47.0335 154.232 47.2794V48.2631Z" fill="#475173"/>
    <path d="M183.797 67.8272C183.605 68.319 183.305 68.5649 182.868 68.5649H181.583C181.365 68.5649 181.201 68.483 181.037 68.3463C180.9 68.2097 180.818 68.0185 180.818 67.8272C180.818 67.7452 180.818 67.6632 180.846 67.6086L183.879 61.1055L177.621 47.4161C177.594 47.3614 177.594 47.2794 177.594 47.1975C177.594 46.9789 177.676 46.8149 177.813 46.6783C177.949 46.5417 178.14 46.4597 178.359 46.4597H179.643C180.053 46.4597 180.381 46.7056 180.572 47.1975L185.436 57.7992L190.382 47.1975C190.573 46.7056 190.874 46.4597 191.311 46.4597H192.595C192.814 46.4597 192.977 46.5417 193.141 46.6783C193.278 46.8149 193.36 47.0062 193.36 47.1975C193.36 47.2794 193.36 47.3614 193.333 47.4161L183.797 67.8272Z" fill="#475173"/>
    <path d="M58.9526 52.3345L48.3235 34.3006C48.2689 34.2186 48.1869 34.1366 48.1049 34.082C48.023 34.0273 47.9137 34 47.8044 34C47.6951 34 47.5858 34.0273 47.5038 34.082C47.4218 34.1366 47.3399 34.2186 47.2852 34.3006L44.1156 39.7107C44.0063 39.8747 43.9517 40.0933 43.9517 40.2846C43.9517 40.4758 44.0063 40.6944 44.1156 40.8584L51.0559 52.6351C51.1652 52.799 51.3019 52.9629 51.4931 53.0722C51.6844 53.1815 51.8757 53.2362 52.0943 53.2362H58.4334C58.5427 53.2362 58.652 53.2089 58.734 53.1542C58.816 53.0996 58.898 53.0176 58.9526 52.9356C59.0073 52.8536 59.0346 52.7444 59.0346 52.6351C59.0346 52.5258 59.0073 52.4438 58.9526 52.3345Z" fill="#475173"/>
    <path d="M31.1093 61.7615L41.7384 43.7276C41.793 43.6456 41.875 43.5636 41.957 43.509C42.0389 43.4543 42.1482 43.427 42.2575 43.427C42.3668 43.427 42.4761 43.4543 42.5581 43.509C42.6401 43.5636 42.7221 43.6456 42.7767 43.7276L45.9463 49.1377C46.0556 49.3017 46.1102 49.5203 46.1102 49.7116C46.1102 49.9028 46.0556 50.1214 45.9463 50.2854L39.006 62.062C38.8967 62.226 38.7601 62.3899 38.5688 62.4992C38.3775 62.6085 38.1862 62.6632 37.9677 62.6632H31.6011C31.4918 62.6632 31.3825 62.6359 31.3006 62.5812C31.2186 62.5266 31.1366 62.4446 31.082 62.3626C31.0273 62.2806 31 62.1713 31 62.062C31.0273 61.9528 31.0546 61.8708 31.1093 61.7615Z" fill="#475173"/>
    <path d="M42.7493 62.6354H64.0075C64.1168 62.6354 64.2261 62.6081 64.3081 62.5534C64.3901 62.4988 64.472 62.4168 64.5267 62.3348C64.5813 62.2529 64.6086 62.1436 64.6086 62.0343C64.6086 61.925 64.5813 61.843 64.5267 61.7337L61.3571 56.3235C61.2478 56.1596 61.1112 55.9956 60.9199 55.8864C60.7286 55.7771 60.5373 55.7224 60.3188 55.7224H46.4654C46.2468 55.7224 46.0556 55.7771 45.8643 55.8864C45.673 55.9956 45.5364 56.1323 45.4271 56.3235L42.2575 61.7337C42.2029 61.8157 42.1755 61.925 42.1755 62.0343C42.1755 62.1436 42.2029 62.2255 42.2575 62.3348C42.3122 62.4168 42.3941 62.4988 42.4761 62.5534C42.5581 62.6081 42.6674 62.6354 42.7493 62.6354Z" fill="#475173"/>
</svg>