<svg width="146" height="102" viewBox="0 0 146 102" fill="none" xmlns="http://www.w3.org/2000/svg">
<path d="M55.1283 44.4181C55.1283 45.4214 55.2104 46.2241 55.4154 46.9064C55.6204 47.388 55.9075 48.0301 56.2765 48.7525C56.4405 48.913 56.4816 49.1538 56.4816 49.3545C56.4816 49.6355 56.3175 49.8763 55.9485 50.1572L54.2262 51.2809C53.9802 51.4415 53.7341 51.5217 53.5291 51.5217C53.2421 51.5217 52.996 51.3612 52.709 51.1204C52.3399 50.7191 52.0119 50.3177 51.7248 49.8763C51.4788 49.4348 51.1917 48.913 50.9047 48.311C48.7724 50.7592 46.1069 52.0033 42.8674 52.0033C40.5711 52.0033 38.7668 51.3612 37.4136 50.0769C36.1014 48.7926 35.4043 47.0669 35.4043 44.8997C35.4043 42.6923 36.2244 40.8863 37.8647 39.4415C39.5459 38.0769 41.7603 37.3545 44.5487 37.3545C45.4918 37.3545 46.353 37.4348 47.4601 37.5953C48.4033 37.7157 49.5105 37.9164 50.5766 38.1572V36.2308C50.5766 34.1839 50.1666 32.8595 49.3054 31.9365C48.4033 31.0936 46.9681 30.7324 44.8767 30.7324C43.8926 30.7324 42.9084 30.8528 41.9243 31.0535C40.8991 31.2943 39.915 31.5753 38.9718 31.9766C38.5208 32.1371 38.1517 32.2575 38.0287 32.2977C37.8236 32.3779 37.7006 32.3779 37.5776 32.3779C37.2086 32.3779 37.0035 32.1371 37.0035 31.5753V30.2508C37.0035 29.8495 37.0445 29.5284 37.2086 29.3278C37.3316 29.1271 37.5776 28.9666 37.9467 28.8462C38.9308 28.2843 40.038 27.8829 41.3912 27.5619C42.7832 27.2056 44.2171 27.0302 45.6559 27.0401C48.8954 27.0401 51.2737 27.7625 52.791 29.2074C54.3082 30.6522 55.0463 32.8595 55.0463 35.7893V44.4181H55.1283ZM44.0566 48.5117C44.9588 48.5117 45.8609 48.3512 46.8451 48.0301C47.8292 47.709 48.6903 47.107 49.4285 46.3043C49.8795 45.7826 50.2076 45.2207 50.4536 44.5786C50.4536 43.9365 50.6586 43.1739 50.6586 42.2508V41.1672C49.8385 40.8863 49.0184 40.8863 48.1163 40.6856C47.2716 40.5953 46.4233 40.5417 45.5739 40.5251C43.7286 40.5251 42.4164 40.8863 41.5142 41.6087C40.6121 42.3311 40.202 43.3344 40.202 44.6589C40.202 45.9431 40.4891 46.9064 41.1862 47.5084C41.8423 48.1906 42.7854 48.5117 44.0566 48.5117ZM65.954 51.3612C65.5571 51.3728 65.1631 51.2902 64.8059 51.1204C64.6828 50.9197 64.4778 50.5585 64.3138 50.0769L57.9168 29.4482C57.7528 28.8462 57.6707 28.5652 57.6707 28.3645C57.6707 27.9231 57.8758 27.6823 58.3268 27.6823H60.9923C61.5253 27.6823 61.8944 27.7625 62.0584 27.9632C62.3045 28.1237 62.4685 28.4849 62.6325 29.0067L67.1842 46.6656L71.4489 29.0067C71.5719 28.4849 71.7359 28.1237 71.982 27.9632C72.187 27.8027 72.5561 27.6823 73.0071 27.6823H75.2625C75.7546 27.6823 76.1236 27.7625 76.3286 27.9632C76.5337 28.1237 76.7387 28.4849 76.8617 29.0067L81.2084 46.9064L85.8831 29.0067C86.0472 28.4849 86.2522 28.1237 86.4162 27.9632C86.6623 27.8027 86.9903 27.6823 87.4824 27.6823H90.0248C90.4758 27.6823 90.7219 27.9231 90.7219 28.3645C90.7219 28.485 90.6809 28.6455 90.6399 28.8462C90.6399 28.8462 90.5579 29.1672 90.4758 29.4482L83.8738 50.0769C83.7098 50.6388 83.5458 50.9197 83.2587 51.1204C83.0947 51.2809 82.7256 51.4013 82.2746 51.4013H79.9372C79.4041 51.4013 79.1581 51.3211 78.83 51.1204C78.5543 50.8343 78.3815 50.4679 78.338 50.0769L74.1143 32.8595L69.8906 50.0368C69.7676 50.5585 69.6036 50.9197 69.3986 51.1204C69.06 51.301 68.6762 51.3844 68.2914 51.3612H65.954ZM101.014 52.0836C99.6613 52.0836 98.144 51.9231 96.7908 51.602C95.4376 51.2809 94.3715 50.9197 93.6743 50.5585C93.3182 50.3909 93.0192 50.1261 92.8132 49.796C92.7018 49.571 92.6456 49.3236 92.6492 49.0736V47.709C92.6492 47.1472 92.8542 46.9064 93.2643 46.9064H93.7564C93.9204 46.9064 94.1664 47.107 94.4535 47.2274C95.3556 47.6288 96.3808 47.9498 97.4469 48.1505C98.5541 48.3512 99.6613 48.4716 100.686 48.4716C102.409 48.4716 103.762 48.1906 104.664 47.5886C105.607 46.9064 106.099 46.1438 106.099 45.0602C106.099 44.2977 105.812 43.6957 105.361 43.1739C104.869 42.6923 103.926 42.2107 102.614 41.8094L98.6361 40.6054C96.6678 39.9632 95.1916 39.0803 94.2894 37.8763C93.4091 36.7617 92.9329 35.392 92.9362 33.9833C92.9362 32.8595 93.1823 31.8963 93.6743 31.0535C94.1664 30.1706 94.8225 29.4482 95.5606 28.8462C96.4628 28.2441 97.3649 27.8027 98.4721 27.4816C99.5383 27.1605 100.686 27 101.917 27C102.491 27 103.106 27.0401 103.762 27.1204C104.336 27.2007 104.91 27.3211 105.484 27.4013C106.058 27.5619 106.55 27.6823 107.042 27.8428C107.535 28.0033 107.863 28.1639 108.191 28.3244C108.56 28.5251 108.847 28.7258 109.011 28.9666C109.175 29.2074 109.257 29.4883 109.257 29.8495V31.1338C109.257 31.6957 109.052 31.9766 108.642 31.9766C108.437 31.9766 108.068 31.8562 107.576 31.6555C106.058 30.9732 104.295 30.612 102.368 30.612C100.809 30.612 99.6613 30.8528 98.7181 31.3746C97.898 31.8562 97.4469 32.6589 97.4469 33.7425C97.4469 34.505 97.734 35.1472 98.2671 35.6288C98.8001 36.1505 99.8253 36.6321 101.261 37.1137L105.156 38.3177C107.124 38.8796 108.519 39.7625 109.38 40.8863C110.2 41.9699 110.61 43.214 110.61 44.6187C110.61 45.7425 110.364 46.786 109.913 47.709C109.421 48.592 108.765 49.3946 107.863 50.0368C107.083 50.7191 106.058 51.2007 104.91 51.5619C103.762 51.9231 102.368 52.0836 101.014 52.0836ZM106.14 65.087C97.1599 71.5485 84.1199 75 73.0071 75C57.2197 75 43.0725 69.301 32.3698 59.8696C31.5087 59.107 32.2878 58.1037 33.3129 58.7057C44.8767 65.2475 59.106 69.2207 73.8683 69.2207C83.8328 69.2207 94.7815 67.2141 104.828 62.9599C106.345 62.3579 107.617 64.0033 106.14 65.087ZM109.913 60.9532C108.724 59.4682 102.286 60.2308 99.3742 60.5518C98.5131 60.6722 98.3901 59.9097 99.1692 59.3478C104.295 55.8562 112.742 56.9398 113.685 58.0234C114.67 59.2274 113.439 67.495 108.642 71.4281C107.863 72.0301 107.165 71.709 107.493 70.9866C108.601 68.2575 111.02 62.3177 109.913 60.9532Z" fill="#475173"/>
</svg>
