<svg width="85" height="85" viewBox="0 0 85 85" fill="none" xmlns="http://www.w3.org/2000/svg">
<rect width="85" height="85" rx="12" fill="#FCFCFD" fill-opacity="0.08"/>
<rect x="1" y="1" width="83" height="83" rx="11" stroke="#FCFCFD" stroke-opacity="0.08" stroke-width="2"/>
<path fill-rule="evenodd" clip-rule="evenodd" d="M29.5531 23.7307C25.9821 23.7307 23.004 26.4485 22.6951 29.9892L20.9197 50.3446C20.4542 55.6811 24.6814 60.2692 30.0637 60.2692H55.9363C61.3188 60.2692 65.5459 55.6811 65.0803 50.3446L63.305 29.9892C62.9961 26.4485 60.018 23.7307 56.4469 23.7307H29.5531ZM49.4213 33.3974C48.5 36.1482 45.9135 38.0035 43.0001 38.0035C40.0866 38.0035 37.5001 36.1481 36.5788 33.3974L35.4543 30.0401C35.1537 29.1427 34.1791 28.6577 33.2774 28.9568C32.3758 29.2559 31.8885 30.2259 32.189 31.1233L33.3135 34.4807C34.7033 38.6302 38.6052 41.429 43.0001 41.429C47.3949 41.429 51.2969 38.6302 52.6865 34.4807L53.8111 31.1233C54.1117 30.2259 53.6243 29.2559 52.7227 28.9568C51.821 28.6577 50.8464 29.1427 50.5458 30.0401L49.4213 33.3974Z" fill="#11A37F"/>
</svg>
