<svg width="442" height="345" viewBox="0 0 442 345" fill="none" xmlns="http://www.w3.org/2000/svg">
<mask id="mask0_2134_1053" style="mask-type:alpha" maskUnits="userSpaceOnUse" x="61" y="-44" width="487" height="425">
<path d="M527.527 279.61C485.95 379.853 273.873 430.076 203.873 314.076C158.444 238.794 27.7951 189.826 69.3727 89.583C110.95 -10.6605 298.574 -77.3983 425.09 -24.9239C551.606 27.5506 569.105 179.366 527.527 279.61Z" fill="url(#paint0_linear_2134_1053)"/>
</mask>
<g mask="url(#mask0_2134_1053)">
<g clip-path="url(#clip0_2134_1053)">
<line x1="182.293" y1="167.998" x2="238.861" y2="111.43" stroke="#2B4045" stroke-opacity="0.42" stroke-width="2"/>
<line x1="182.293" y1="176.567" x2="238.861" y2="119.998" stroke="#2B4045" stroke-opacity="0.42" stroke-width="2"/>
<line x1="182.293" y1="185.136" x2="238.861" y2="128.567" stroke="#2B4045" stroke-opacity="0.42" stroke-width="2"/>
<line x1="182.293" y1="193.704" x2="238.861" y2="137.135" stroke="#2B4045" stroke-opacity="0.42" stroke-width="2"/>
<line x1="182.293" y1="202.272" x2="238.861" y2="145.704" stroke="#2B4045" stroke-opacity="0.42" stroke-width="2"/>
<line x1="182.293" y1="210.841" x2="238.861" y2="154.273" stroke="#2B4045" stroke-opacity="0.42" stroke-width="2"/>
<line x1="182.293" y1="219.41" x2="238.861" y2="162.841" stroke="#2B4045" stroke-opacity="0.42" stroke-width="2"/>
<line x1="182.293" y1="227.978" x2="238.861" y2="171.41" stroke="#2B4045" stroke-opacity="0.42" stroke-width="2"/>
<line x1="182.293" y1="236.547" x2="238.861" y2="179.978" stroke="#2B4045" stroke-opacity="0.42" stroke-width="2"/>
<line x1="182.293" y1="245.115" x2="238.861" y2="188.547" stroke="#2B4045" stroke-opacity="0.42" stroke-width="2"/>
<line x1="182.293" y1="253.684" x2="238.861" y2="197.115" stroke="#2B4045" stroke-opacity="0.42" stroke-width="2"/>
<line x1="182.293" y1="262.252" x2="238.861" y2="205.684" stroke="#2B4045" stroke-opacity="0.42" stroke-width="2"/>
<line x1="182.293" y1="270.821" x2="238.861" y2="214.252" stroke="#2B4045" stroke-opacity="0.42" stroke-width="2"/>
<line x1="182.293" y1="279.39" x2="238.861" y2="222.821" stroke="#2B4045" stroke-opacity="0.42" stroke-width="2"/>
<line x1="182.293" y1="287.958" x2="238.861" y2="231.389" stroke="#2B4045" stroke-opacity="0.42" stroke-width="2"/>
<line x1="182.293" y1="296.527" x2="238.861" y2="239.958" stroke="#2B4045" stroke-opacity="0.42" stroke-width="2"/>
<line x1="182.293" y1="305.095" x2="238.861" y2="248.527" stroke="#2B4045" stroke-opacity="0.42" stroke-width="2"/>
<line x1="182.293" y1="313.663" x2="238.861" y2="257.095" stroke="#2B4045" stroke-opacity="0.42" stroke-width="2"/>
<line x1="182.293" y1="322.232" x2="238.861" y2="265.664" stroke="#2B4045" stroke-opacity="0.42" stroke-width="2"/>
<line x1="182.293" y1="330.801" x2="238.861" y2="274.232" stroke="#2B4045" stroke-opacity="0.42" stroke-width="2"/>
<line x1="182.293" y1="339.369" x2="238.861" y2="282.801" stroke="#2B4045" stroke-opacity="0.42" stroke-width="2"/>
<line x1="182.293" y1="347.938" x2="238.861" y2="291.369" stroke="#2B4045" stroke-opacity="0.42" stroke-width="2"/>
<line x1="182.293" y1="356.506" x2="238.861" y2="299.938" stroke="#2B4045" stroke-opacity="0.42" stroke-width="2"/>
<line x1="182.293" y1="365.075" x2="238.861" y2="308.507" stroke="#2B4045" stroke-opacity="0.42" stroke-width="2"/>
<line x1="182.293" y1="373.643" x2="238.861" y2="317.075" stroke="#2B4045" stroke-opacity="0.42" stroke-width="2"/>
<line x1="182.293" y1="159.43" x2="238.861" y2="102.862" stroke="#2B4045" stroke-opacity="0.42" stroke-width="2"/>
<line x1="182.293" y1="150.861" x2="238.861" y2="94.2927" stroke="#2B4045" stroke-opacity="0.42" stroke-width="2"/>
<rect x="189" y="228" width="42" height="89" rx="6" fill="url(#paint1_linear_2134_1053)"/>
</g>
<g clip-path="url(#clip1_2134_1053)">
<line x1="406.293" y1="88.9985" x2="462.861" y2="32.4299" stroke="#2B4045" stroke-opacity="0.42" stroke-width="2"/>
<line x1="406.293" y1="97.5668" x2="462.861" y2="40.9983" stroke="#2B4045" stroke-opacity="0.42" stroke-width="2"/>
<line x1="406.293" y1="106.136" x2="462.861" y2="49.5671" stroke="#2B4045" stroke-opacity="0.42" stroke-width="2"/>
<line x1="406.293" y1="114.704" x2="462.861" y2="58.1355" stroke="#2B4045" stroke-opacity="0.42" stroke-width="2"/>
<line x1="406.293" y1="123.272" x2="462.861" y2="66.7038" stroke="#2B4045" stroke-opacity="0.42" stroke-width="2"/>
<line x1="406.293" y1="131.841" x2="462.861" y2="75.2727" stroke="#2B4045" stroke-opacity="0.42" stroke-width="2"/>
<line x1="406.293" y1="140.41" x2="462.861" y2="83.841" stroke="#2B4045" stroke-opacity="0.42" stroke-width="2"/>
<line x1="406.293" y1="148.978" x2="462.861" y2="92.4099" stroke="#2B4045" stroke-opacity="0.42" stroke-width="2"/>
<line x1="406.293" y1="157.547" x2="462.861" y2="100.978" stroke="#2B4045" stroke-opacity="0.42" stroke-width="2"/>
<line x1="406.293" y1="166.115" x2="462.861" y2="109.547" stroke="#2B4045" stroke-opacity="0.42" stroke-width="2"/>
<line x1="406.293" y1="174.684" x2="462.861" y2="118.115" stroke="#2B4045" stroke-opacity="0.42" stroke-width="2"/>
<line x1="406.293" y1="183.252" x2="462.861" y2="126.684" stroke="#2B4045" stroke-opacity="0.42" stroke-width="2"/>
<line x1="406.293" y1="191.821" x2="462.861" y2="135.252" stroke="#2B4045" stroke-opacity="0.42" stroke-width="2"/>
<line x1="406.293" y1="200.39" x2="462.861" y2="143.821" stroke="#2B4045" stroke-opacity="0.42" stroke-width="2"/>
<line x1="406.293" y1="208.958" x2="462.861" y2="152.389" stroke="#2B4045" stroke-opacity="0.42" stroke-width="2"/>
<line x1="406.293" y1="217.527" x2="462.861" y2="160.958" stroke="#2B4045" stroke-opacity="0.42" stroke-width="2"/>
<line x1="406.293" y1="226.095" x2="462.861" y2="169.527" stroke="#2B4045" stroke-opacity="0.42" stroke-width="2"/>
<line x1="406.293" y1="234.663" x2="462.861" y2="178.095" stroke="#2B4045" stroke-opacity="0.42" stroke-width="2"/>
<line x1="406.293" y1="243.232" x2="462.861" y2="186.664" stroke="#2B4045" stroke-opacity="0.42" stroke-width="2"/>
<line x1="406.293" y1="251.801" x2="462.861" y2="195.232" stroke="#2B4045" stroke-opacity="0.42" stroke-width="2"/>
<line x1="406.293" y1="260.369" x2="462.861" y2="203.801" stroke="#2B4045" stroke-opacity="0.42" stroke-width="2"/>
<line x1="406.293" y1="268.938" x2="462.861" y2="212.369" stroke="#2B4045" stroke-opacity="0.42" stroke-width="2"/>
<line x1="406.293" y1="277.506" x2="462.861" y2="220.938" stroke="#2B4045" stroke-opacity="0.42" stroke-width="2"/>
<line x1="406.293" y1="286.075" x2="462.861" y2="229.507" stroke="#2B4045" stroke-opacity="0.42" stroke-width="2"/>
<line x1="406.293" y1="294.643" x2="462.861" y2="238.075" stroke="#2B4045" stroke-opacity="0.42" stroke-width="2"/>
<line x1="406.293" y1="303.212" x2="462.861" y2="246.643" stroke="#2B4045" stroke-opacity="0.42" stroke-width="2"/>
<line x1="406.293" y1="311.781" x2="462.861" y2="255.212" stroke="#2B4045" stroke-opacity="0.42" stroke-width="2"/>
<line x1="406.293" y1="320.349" x2="462.861" y2="263.781" stroke="#2B4045" stroke-opacity="0.42" stroke-width="2"/>
<line x1="406.293" y1="328.917" x2="462.861" y2="272.349" stroke="#2B4045" stroke-opacity="0.42" stroke-width="2"/>
<line x1="406.293" y1="337.486" x2="462.861" y2="280.918" stroke="#2B4045" stroke-opacity="0.42" stroke-width="2"/>
<line x1="406.293" y1="346.055" x2="462.861" y2="289.486" stroke="#2B4045" stroke-opacity="0.42" stroke-width="2"/>
<line x1="406.293" y1="80.4301" x2="462.861" y2="23.8616" stroke="#2B4045" stroke-opacity="0.42" stroke-width="2"/>
<line x1="406.293" y1="71.8613" x2="462.861" y2="15.2927" stroke="#2B4045" stroke-opacity="0.42" stroke-width="2"/>
<rect x="413" y="73" width="42" height="244" rx="6" fill="url(#paint2_linear_2134_1053)" fill-opacity="0.64"/>
</g>
<path d="M259.314 71.12H261.304V71.83H259.314V73.89H258.594V71.83H256.604V71.12H258.594V69.05H259.314V71.12ZM263.537 75V68.92H263.477L262.047 70.07V69.08L263.507 67.9H264.427V75H263.537ZM266.916 75V68.92H266.856L265.426 70.07V69.08L266.886 67.9H267.806V75H266.916ZM270.535 67.76C271.028 67.76 271.402 67.9567 271.655 68.35C271.908 68.7367 272.035 69.2833 272.035 69.99C272.035 70.6967 271.912 71.25 271.665 71.65C271.425 72.0433 271.048 72.24 270.535 72.24C270.222 72.24 269.955 72.15 269.735 71.97C269.515 71.79 269.348 71.5333 269.235 71.2C269.128 70.86 269.075 70.4567 269.075 69.99C269.075 69.2833 269.192 68.7367 269.425 68.35C269.658 67.9567 270.028 67.76 270.535 67.76ZM270.535 68.38C270.282 68.38 270.095 68.5167 269.975 68.79C269.862 69.0567 269.805 69.4567 269.805 69.99C269.805 70.5233 269.862 70.9267 269.975 71.2C270.095 71.4733 270.282 71.61 270.535 71.61C270.795 71.61 270.988 71.4767 271.115 71.21C271.242 70.9367 271.305 70.53 271.305 69.99C271.305 69.4567 271.242 69.0567 271.115 68.79C270.988 68.5167 270.795 68.38 270.535 68.38ZM275.105 67.86L271.145 75H270.375L274.335 67.86H275.105ZM274.905 70.62C275.232 70.62 275.505 70.71 275.725 70.89C275.945 71.0633 276.112 71.3167 276.225 71.65C276.345 71.9767 276.405 72.3767 276.405 72.85C276.405 73.5567 276.282 74.11 276.035 74.51C275.795 74.9033 275.418 75.1 274.905 75.1C274.592 75.1 274.325 75.01 274.105 74.83C273.885 74.65 273.718 74.3933 273.605 74.06C273.498 73.72 273.445 73.3167 273.445 72.85C273.445 72.1433 273.562 71.5967 273.795 71.21C274.028 70.8167 274.398 70.62 274.905 70.62ZM274.905 71.25C274.652 71.25 274.465 71.3833 274.345 71.65C274.232 71.9167 274.175 72.3167 274.175 72.85C274.175 73.39 274.232 73.7967 274.345 74.07C274.465 74.3367 274.652 74.47 274.905 74.47C275.165 74.47 275.358 74.3367 275.485 74.07C275.612 73.8033 275.675 73.3967 275.675 72.85C275.675 72.3167 275.612 71.9167 275.485 71.65C275.358 71.3833 275.165 71.25 274.905 71.25Z" fill="#00775B"/>
<g clip-path="url(#clip2_2134_1053)">
<line x1="238.293" y1="117.998" x2="294.861" y2="61.4299" stroke="#2B4045" stroke-opacity="0.42" stroke-width="2"/>
<line x1="238.293" y1="126.567" x2="294.861" y2="69.9983" stroke="#2B4045" stroke-opacity="0.42" stroke-width="2"/>
<line x1="238.293" y1="135.136" x2="294.861" y2="78.5671" stroke="#2B4045" stroke-opacity="0.42" stroke-width="2"/>
<line x1="238.293" y1="143.704" x2="294.861" y2="87.1355" stroke="#2B4045" stroke-opacity="0.42" stroke-width="2"/>
<line x1="238.293" y1="152.272" x2="294.861" y2="95.7038" stroke="#2B4045" stroke-opacity="0.42" stroke-width="2"/>
<line x1="238.293" y1="160.841" x2="294.861" y2="104.273" stroke="#2B4045" stroke-opacity="0.42" stroke-width="2"/>
<line x1="238.293" y1="169.41" x2="294.861" y2="112.841" stroke="#2B4045" stroke-opacity="0.42" stroke-width="2"/>
<line x1="238.293" y1="177.978" x2="294.861" y2="121.41" stroke="#2B4045" stroke-opacity="0.42" stroke-width="2"/>
<line x1="238.293" y1="186.547" x2="294.861" y2="129.978" stroke="#2B4045" stroke-opacity="0.42" stroke-width="2"/>
<line x1="238.293" y1="195.115" x2="294.861" y2="138.547" stroke="#2B4045" stroke-opacity="0.42" stroke-width="2"/>
<line x1="238.293" y1="203.684" x2="294.861" y2="147.115" stroke="#2B4045" stroke-opacity="0.42" stroke-width="2"/>
<line x1="238.293" y1="212.252" x2="294.861" y2="155.684" stroke="#2B4045" stroke-opacity="0.42" stroke-width="2"/>
<line x1="238.293" y1="220.821" x2="294.861" y2="164.252" stroke="#2B4045" stroke-opacity="0.42" stroke-width="2"/>
<line x1="238.293" y1="229.39" x2="294.861" y2="172.821" stroke="#2B4045" stroke-opacity="0.42" stroke-width="2"/>
<line x1="238.293" y1="237.958" x2="294.861" y2="181.389" stroke="#2B4045" stroke-opacity="0.42" stroke-width="2"/>
<line x1="238.293" y1="246.527" x2="294.861" y2="189.958" stroke="#2B4045" stroke-opacity="0.42" stroke-width="2"/>
<line x1="238.293" y1="255.095" x2="294.861" y2="198.527" stroke="#2B4045" stroke-opacity="0.42" stroke-width="2"/>
<line x1="238.293" y1="263.663" x2="294.861" y2="207.095" stroke="#2B4045" stroke-opacity="0.42" stroke-width="2"/>
<line x1="238.293" y1="272.232" x2="294.861" y2="215.664" stroke="#2B4045" stroke-opacity="0.42" stroke-width="2"/>
<line x1="238.293" y1="280.801" x2="294.861" y2="224.232" stroke="#2B4045" stroke-opacity="0.42" stroke-width="2"/>
<line x1="238.293" y1="289.369" x2="294.861" y2="232.801" stroke="#2B4045" stroke-opacity="0.42" stroke-width="2"/>
<line x1="238.293" y1="297.938" x2="294.861" y2="241.369" stroke="#2B4045" stroke-opacity="0.42" stroke-width="2"/>
<line x1="238.293" y1="306.506" x2="294.861" y2="249.938" stroke="#2B4045" stroke-opacity="0.42" stroke-width="2"/>
<line x1="238.293" y1="315.075" x2="294.861" y2="258.507" stroke="#2B4045" stroke-opacity="0.42" stroke-width="2"/>
<line x1="238.293" y1="323.643" x2="294.861" y2="267.075" stroke="#2B4045" stroke-opacity="0.42" stroke-width="2"/>
<line x1="238.293" y1="332.212" x2="294.861" y2="275.643" stroke="#2B4045" stroke-opacity="0.42" stroke-width="2"/>
<line x1="238.293" y1="340.781" x2="294.861" y2="284.212" stroke="#2B4045" stroke-opacity="0.42" stroke-width="2"/>
<line x1="238.293" y1="349.349" x2="294.861" y2="292.781" stroke="#2B4045" stroke-opacity="0.42" stroke-width="2"/>
<line x1="238.293" y1="357.917" x2="294.861" y2="301.349" stroke="#2B4045" stroke-opacity="0.42" stroke-width="2"/>
<line x1="238.293" y1="366.486" x2="294.861" y2="309.918" stroke="#2B4045" stroke-opacity="0.42" stroke-width="2"/>
<line x1="238.293" y1="375.055" x2="294.861" y2="318.486" stroke="#2B4045" stroke-opacity="0.42" stroke-width="2"/>
<line x1="238.293" y1="109.43" x2="294.861" y2="52.8616" stroke="#2B4045" stroke-opacity="0.42" stroke-width="2"/>
<line x1="238.293" y1="100.861" x2="294.861" y2="44.2927" stroke="#2B4045" stroke-opacity="0.42" stroke-width="2"/>
<path d="M246 246C246 242.686 248.686 240 252 240H282C285.314 240 288 242.686 288 246V311C288 314.314 285.314 317 282 317H252C248.686 317 246 314.314 246 311V246Z" fill="url(#paint3_linear_2134_1053)"/>
</g>
<path d="M306.858 32.12H308.848V32.83H306.858V34.89H306.138V32.83H304.148V32.12H306.138V30.05H306.858V32.12ZM309.731 35.7C309.731 34.55 310.081 33.49 311.761 32.75L312.551 32.4C313.401 32.02 313.761 31.66 313.761 30.95V30.73C313.761 29.96 313.231 29.58 312.361 29.58C311.251 29.58 310.791 30.13 310.671 31.15H309.771C309.931 29.75 310.841 28.81 312.361 28.81C313.731 28.81 314.661 29.63 314.661 30.86C314.661 31.95 314.071 32.54 312.901 33.07L312.081 33.44C311.241 33.82 310.721 34.29 310.661 35.23H314.671V36H309.731V35.7ZM318.34 36V34.28H315.05V33.45L317.75 28.9H318.69L315.99 33.45V33.51H318.34V31.59H319.22V33.51H320.55V34.28H319.22V36H318.34ZM322.737 28.76C323.23 28.76 323.603 28.9567 323.857 29.35C324.11 29.7367 324.237 30.2833 324.237 30.99C324.237 31.6967 324.113 32.25 323.867 32.65C323.627 33.0433 323.25 33.24 322.737 33.24C322.423 33.24 322.157 33.15 321.937 32.97C321.717 32.79 321.55 32.5333 321.437 32.2C321.33 31.86 321.277 31.4567 321.277 30.99C321.277 30.2833 321.393 29.7367 321.627 29.35C321.86 28.9567 322.23 28.76 322.737 28.76ZM322.737 29.38C322.483 29.38 322.297 29.5167 322.177 29.79C322.063 30.0567 322.007 30.4567 322.007 30.99C322.007 31.5233 322.063 31.9267 322.177 32.2C322.297 32.4733 322.483 32.61 322.737 32.61C322.997 32.61 323.19 32.4767 323.317 32.21C323.443 31.9367 323.507 31.53 323.507 30.99C323.507 30.4567 323.443 30.0567 323.317 29.79C323.19 29.5167 322.997 29.38 322.737 29.38ZM327.307 28.86L323.347 36H322.577L326.537 28.86H327.307ZM327.107 31.62C327.433 31.62 327.707 31.71 327.927 31.89C328.147 32.0633 328.313 32.3167 328.427 32.65C328.547 32.9767 328.607 33.3767 328.607 33.85C328.607 34.5567 328.483 35.11 328.237 35.51C327.997 35.9033 327.62 36.1 327.107 36.1C326.793 36.1 326.527 36.01 326.307 35.83C326.087 35.65 325.92 35.3933 325.807 35.06C325.7 34.72 325.647 34.3167 325.647 33.85C325.647 33.1433 325.763 32.5967 325.997 32.21C326.23 31.8167 326.6 31.62 327.107 31.62ZM327.107 32.25C326.853 32.25 326.667 32.3833 326.547 32.65C326.433 32.9167 326.377 33.3167 326.377 33.85C326.377 34.39 326.433 34.7967 326.547 35.07C326.667 35.3367 326.853 35.47 327.107 35.47C327.367 35.47 327.56 35.3367 327.687 35.07C327.813 34.8033 327.877 34.3967 327.877 33.85C327.877 33.3167 327.813 32.9167 327.687 32.65C327.56 32.3833 327.367 32.25 327.107 32.25Z" fill="#00775B"/>
<rect x="331.373" y="27" width="10" height="10" rx="5" fill="#11A37F"/>
<path d="M338.372 31.2856L336.608 33.1808C336.478 33.3206 336.267 33.3206 336.137 33.1808L334.372 31.2856" stroke="#FCFCFD" stroke-linecap="round"/>
<g clip-path="url(#clip3_2134_1053)">
<line x1="294.665" y1="48.9223" x2="351.234" y2="-7.64625" stroke="#2B4045" stroke-opacity="0.42" stroke-width="2"/>
<line x1="294.665" y1="57.4906" x2="351.234" y2="0.922106" stroke="#2B4045" stroke-opacity="0.42" stroke-width="2"/>
<line x1="294.665" y1="66.0595" x2="351.234" y2="9.49095" stroke="#2B4045" stroke-opacity="0.42" stroke-width="2"/>
<line x1="294.665" y1="74.6279" x2="351.234" y2="18.0593" stroke="#2B4045" stroke-opacity="0.42" stroke-width="2"/>
<line x1="294.665" y1="83.1962" x2="351.234" y2="26.6277" stroke="#2B4045" stroke-opacity="0.42" stroke-width="2"/>
<line x1="294.665" y1="91.7651" x2="351.234" y2="35.1965" stroke="#2B4045" stroke-opacity="0.42" stroke-width="2"/>
<line x1="294.665" y1="100.333" x2="351.234" y2="43.7649" stroke="#2B4045" stroke-opacity="0.42" stroke-width="2"/>
<line x1="294.665" y1="108.902" x2="351.234" y2="52.3337" stroke="#2B4045" stroke-opacity="0.42" stroke-width="2"/>
<line x1="294.665" y1="117.471" x2="351.234" y2="60.9021" stroke="#2B4045" stroke-opacity="0.42" stroke-width="2"/>
<line x1="294.665" y1="126.039" x2="351.234" y2="69.4704" stroke="#2B4045" stroke-opacity="0.42" stroke-width="2"/>
<line x1="294.665" y1="134.608" x2="351.234" y2="78.0393" stroke="#2B4045" stroke-opacity="0.42" stroke-width="2"/>
<line x1="294.665" y1="143.176" x2="351.234" y2="86.6077" stroke="#2B4045" stroke-opacity="0.42" stroke-width="2"/>
<line x1="294.665" y1="151.745" x2="351.234" y2="95.176" stroke="#2B4045" stroke-opacity="0.42" stroke-width="2"/>
<line x1="294.665" y1="160.313" x2="351.234" y2="103.745" stroke="#2B4045" stroke-opacity="0.42" stroke-width="2"/>
<line x1="294.665" y1="168.882" x2="351.234" y2="112.313" stroke="#2B4045" stroke-opacity="0.42" stroke-width="2"/>
<line x1="294.665" y1="177.451" x2="351.234" y2="120.882" stroke="#2B4045" stroke-opacity="0.42" stroke-width="2"/>
<line x1="294.665" y1="186.019" x2="351.234" y2="129.45" stroke="#2B4045" stroke-opacity="0.42" stroke-width="2"/>
<line x1="294.665" y1="194.587" x2="351.234" y2="138.019" stroke="#2B4045" stroke-opacity="0.42" stroke-width="2"/>
<line x1="294.665" y1="203.156" x2="351.234" y2="146.588" stroke="#2B4045" stroke-opacity="0.42" stroke-width="2"/>
<line x1="294.665" y1="211.725" x2="351.234" y2="155.156" stroke="#2B4045" stroke-opacity="0.42" stroke-width="2"/>
<line x1="294.665" y1="220.293" x2="351.234" y2="163.724" stroke="#2B4045" stroke-opacity="0.42" stroke-width="2"/>
<line x1="294.665" y1="228.862" x2="351.234" y2="172.293" stroke="#2B4045" stroke-opacity="0.42" stroke-width="2"/>
<line x1="294.665" y1="237.43" x2="351.234" y2="180.862" stroke="#2B4045" stroke-opacity="0.42" stroke-width="2"/>
<line x1="294.665" y1="245.999" x2="351.234" y2="189.43" stroke="#2B4045" stroke-opacity="0.42" stroke-width="2"/>
<line x1="294.665" y1="254.567" x2="351.234" y2="197.999" stroke="#2B4045" stroke-opacity="0.42" stroke-width="2"/>
<line x1="294.665" y1="263.136" x2="351.234" y2="206.567" stroke="#2B4045" stroke-opacity="0.42" stroke-width="2"/>
<line x1="294.665" y1="271.705" x2="351.234" y2="215.136" stroke="#2B4045" stroke-opacity="0.42" stroke-width="2"/>
<line x1="294.665" y1="280.273" x2="351.234" y2="223.704" stroke="#2B4045" stroke-opacity="0.42" stroke-width="2"/>
<line x1="294.665" y1="288.841" x2="351.234" y2="232.273" stroke="#2B4045" stroke-opacity="0.42" stroke-width="2"/>
<line x1="294.665" y1="297.41" x2="351.234" y2="240.842" stroke="#2B4045" stroke-opacity="0.42" stroke-width="2"/>
<line x1="294.665" y1="305.978" x2="351.234" y2="249.41" stroke="#2B4045" stroke-opacity="0.42" stroke-width="2"/>
<line x1="294.665" y1="313.136" x2="351.234" y2="256.567" stroke="#2B4045" stroke-opacity="0.42" stroke-width="2"/>
<line x1="294.665" y1="321.705" x2="351.234" y2="265.136" stroke="#2B4045" stroke-opacity="0.42" stroke-width="2"/>
<line x1="294.665" y1="330.273" x2="351.234" y2="273.704" stroke="#2B4045" stroke-opacity="0.42" stroke-width="2"/>
<line x1="294.665" y1="338.841" x2="351.234" y2="282.273" stroke="#2B4045" stroke-opacity="0.42" stroke-width="2"/>
<line x1="294.665" y1="347.41" x2="351.234" y2="290.842" stroke="#2B4045" stroke-opacity="0.42" stroke-width="2"/>
<line x1="294.665" y1="355.978" x2="351.234" y2="299.41" stroke="#2B4045" stroke-opacity="0.42" stroke-width="2"/>
<line x1="294.665" y1="364.978" x2="351.234" y2="308.41" stroke="#2B4045" stroke-opacity="0.42" stroke-width="2"/>
<rect x="301.373" y="135" width="42" height="182" rx="6" fill="url(#paint4_linear_2134_1053)"/>
</g>
<path d="M370.391 73.12H372.381V73.83H370.391V75.89H369.671V73.83H367.681V73.12H369.671V71.05H370.391V73.12ZM375.744 69.81C377.534 69.81 378.424 71 378.424 73.34C378.424 75.81 377.494 77.09 375.784 77.09C374.454 77.09 373.734 76.39 373.424 75.16H374.334C374.554 75.97 374.934 76.33 375.804 76.33C376.964 76.33 377.574 75.36 377.574 73.76V73.52H377.534C377.134 74.16 376.554 74.5 375.654 74.5C374.274 74.5 373.314 73.6 373.314 72.19C373.314 70.76 374.254 69.81 375.744 69.81ZM375.764 70.57C374.774 70.57 374.214 71.11 374.214 72.05V72.31C374.214 73.23 374.744 73.73 375.734 73.73C376.844 73.73 377.384 73.18 377.384 72.1C377.384 71.11 376.834 70.57 375.764 70.57ZM380.831 69.76C381.324 69.76 381.697 69.9567 381.951 70.35C382.204 70.7367 382.331 71.2833 382.331 71.99C382.331 72.6967 382.207 73.25 381.961 73.65C381.721 74.0433 381.344 74.24 380.831 74.24C380.517 74.24 380.251 74.15 380.031 73.97C379.811 73.79 379.644 73.5333 379.531 73.2C379.424 72.86 379.371 72.4567 379.371 71.99C379.371 71.2833 379.487 70.7367 379.721 70.35C379.954 69.9567 380.324 69.76 380.831 69.76ZM380.831 70.38C380.577 70.38 380.391 70.5167 380.271 70.79C380.157 71.0567 380.101 71.4567 380.101 71.99C380.101 72.5233 380.157 72.9267 380.271 73.2C380.391 73.4733 380.577 73.61 380.831 73.61C381.091 73.61 381.284 73.4767 381.411 73.21C381.537 72.9367 381.601 72.53 381.601 71.99C381.601 71.4567 381.537 71.0567 381.411 70.79C381.284 70.5167 381.091 70.38 380.831 70.38ZM385.401 69.86L381.441 77H380.671L384.631 69.86H385.401ZM385.201 72.62C385.527 72.62 385.801 72.71 386.021 72.89C386.241 73.0633 386.407 73.3167 386.521 73.65C386.641 73.9767 386.701 74.3767 386.701 74.85C386.701 75.5567 386.577 76.11 386.331 76.51C386.091 76.9033 385.714 77.1 385.201 77.1C384.887 77.1 384.621 77.01 384.401 76.83C384.181 76.65 384.014 76.3933 383.901 76.06C383.794 75.72 383.741 75.3167 383.741 74.85C383.741 74.1433 383.857 73.5967 384.091 73.21C384.324 72.8167 384.694 72.62 385.201 72.62ZM385.201 73.25C384.947 73.25 384.761 73.3833 384.641 73.65C384.527 73.9167 384.471 74.3167 384.471 74.85C384.471 75.39 384.527 75.7967 384.641 76.07C384.761 76.3367 384.947 76.47 385.201 76.47C385.461 76.47 385.654 76.3367 385.781 76.07C385.907 75.8033 385.971 75.3967 385.971 74.85C385.971 74.3167 385.907 73.9167 385.781 73.65C385.654 73.3833 385.461 73.25 385.201 73.25Z" fill="#00775B"/>
<g clip-path="url(#clip4_2134_1053)">
<line x1="349.293" y1="118.922" x2="405.861" y2="62.3537" stroke="#2B4045" stroke-opacity="0.42" stroke-width="2"/>
<line x1="349.293" y1="127.491" x2="405.861" y2="70.9221" stroke="#2B4045" stroke-opacity="0.42" stroke-width="2"/>
<line x1="349.293" y1="136.059" x2="405.861" y2="79.491" stroke="#2B4045" stroke-opacity="0.42" stroke-width="2"/>
<line x1="349.293" y1="144.628" x2="405.861" y2="88.0593" stroke="#2B4045" stroke-opacity="0.42" stroke-width="2"/>
<line x1="349.293" y1="153.196" x2="405.861" y2="96.6277" stroke="#2B4045" stroke-opacity="0.42" stroke-width="2"/>
<line x1="349.293" y1="161.765" x2="405.861" y2="105.197" stroke="#2B4045" stroke-opacity="0.42" stroke-width="2"/>
<line x1="349.293" y1="170.333" x2="405.861" y2="113.765" stroke="#2B4045" stroke-opacity="0.42" stroke-width="2"/>
<line x1="349.293" y1="178.902" x2="405.861" y2="122.334" stroke="#2B4045" stroke-opacity="0.42" stroke-width="2"/>
<line x1="349.293" y1="187.471" x2="405.861" y2="130.902" stroke="#2B4045" stroke-opacity="0.42" stroke-width="2"/>
<line x1="349.293" y1="196.039" x2="405.861" y2="139.47" stroke="#2B4045" stroke-opacity="0.42" stroke-width="2"/>
<line x1="349.293" y1="204.608" x2="405.861" y2="148.039" stroke="#2B4045" stroke-opacity="0.42" stroke-width="2"/>
<line x1="349.293" y1="213.176" x2="405.861" y2="156.608" stroke="#2B4045" stroke-opacity="0.42" stroke-width="2"/>
<line x1="349.293" y1="221.745" x2="405.861" y2="165.176" stroke="#2B4045" stroke-opacity="0.42" stroke-width="2"/>
<line x1="349.293" y1="230.313" x2="405.861" y2="173.745" stroke="#2B4045" stroke-opacity="0.42" stroke-width="2"/>
<line x1="349.293" y1="238.882" x2="405.861" y2="182.313" stroke="#2B4045" stroke-opacity="0.42" stroke-width="2"/>
<line x1="349.293" y1="247.451" x2="405.861" y2="190.882" stroke="#2B4045" stroke-opacity="0.42" stroke-width="2"/>
<line x1="349.293" y1="256.019" x2="405.861" y2="199.45" stroke="#2B4045" stroke-opacity="0.42" stroke-width="2"/>
<line x1="349.293" y1="264.587" x2="405.861" y2="208.019" stroke="#2B4045" stroke-opacity="0.42" stroke-width="2"/>
<line x1="349.293" y1="273.156" x2="405.861" y2="216.588" stroke="#2B4045" stroke-opacity="0.42" stroke-width="2"/>
<line x1="349.293" y1="281.725" x2="405.861" y2="225.156" stroke="#2B4045" stroke-opacity="0.42" stroke-width="2"/>
<line x1="349.293" y1="290.293" x2="405.861" y2="233.724" stroke="#2B4045" stroke-opacity="0.42" stroke-width="2"/>
<line x1="349.293" y1="298.862" x2="405.861" y2="242.293" stroke="#2B4045" stroke-opacity="0.42" stroke-width="2"/>
<line x1="349.293" y1="307.43" x2="405.861" y2="250.862" stroke="#2B4045" stroke-opacity="0.42" stroke-width="2"/>
<line x1="349.293" y1="315.999" x2="405.861" y2="259.43" stroke="#2B4045" stroke-opacity="0.42" stroke-width="2"/>
<line x1="349.293" y1="324.567" x2="405.861" y2="267.999" stroke="#2B4045" stroke-opacity="0.42" stroke-width="2"/>
<line x1="349.293" y1="333.136" x2="405.861" y2="276.567" stroke="#2B4045" stroke-opacity="0.42" stroke-width="2"/>
<line x1="349.293" y1="341.705" x2="405.861" y2="285.136" stroke="#2B4045" stroke-opacity="0.42" stroke-width="2"/>
<line x1="349.293" y1="350.273" x2="405.861" y2="293.704" stroke="#2B4045" stroke-opacity="0.42" stroke-width="2"/>
<line x1="349.293" y1="358.841" x2="405.861" y2="302.273" stroke="#2B4045" stroke-opacity="0.42" stroke-width="2"/>
<line x1="349.293" y1="367.41" x2="405.861" y2="310.842" stroke="#2B4045" stroke-opacity="0.42" stroke-width="2"/>
<line x1="349.293" y1="375.978" x2="405.861" y2="319.41" stroke="#2B4045" stroke-opacity="0.42" stroke-width="2"/>
<line x1="349.293" y1="110.354" x2="405.861" y2="53.7854" stroke="#2B4045" stroke-opacity="0.42" stroke-width="2"/>
<line x1="349.293" y1="101.785" x2="405.861" y2="45.2165" stroke="#2B4045" stroke-opacity="0.42" stroke-width="2"/>
<rect x="356.186" y="172" width="42" height="145" rx="6" fill="url(#paint5_linear_2134_1053)"/>
</g>
<g filter="url(#filter0_d_2134_1053)">
<path d="M64.988 228.328C113.035 234.492 123.966 299.387 149.526 297.599C179.453 295.507 176.558 254.108 217.598 253.243C259.362 252.363 243.681 296.529 283.698 288.217C323.716 279.905 325.164 193.093 362.573 190.477C428.6 185.86 463.675 260.094 559.152 113.076" stroke="url(#paint6_linear_2134_1053)" stroke-width="5"/>
</g>
<path d="M170.5 259C215.5 294 223.722 231.917 247 215C272.761 196.279 298.097 250.902 332 235.5C356.775 224.244 371.551 153.471 410.571 150.742C449.975 147.987 467.068 193.464 505.594 190.77C557.468 187.143 556.254 90.9343 567.827 70.0761" stroke="url(#paint7_linear_2134_1053)" stroke-width="2"/>
</g>
<defs>
<filter id="filter0_d_2134_1053" x="54.6699" y="107.714" width="516.579" height="208.421" filterUnits="userSpaceOnUse" color-interpolation-filters="sRGB">
<feFlood flood-opacity="0" result="BackgroundImageFix"/>
<feColorMatrix in="SourceAlpha" type="matrix" values="0 0 0 0 0 0 0 0 0 0 0 0 0 0 0 0 0 0 127 0" result="hardAlpha"/>
<feOffset dy="6"/>
<feGaussianBlur stdDeviation="5"/>
<feComposite in2="hardAlpha" operator="out"/>
<feColorMatrix type="matrix" values="0 0 0 0 0.0666667 0 0 0 0 0.0980392 0 0 0 0 0.152941 0 0 0 0.24 0"/>
<feBlend mode="normal" in2="BackgroundImageFix" result="effect1_dropShadow_2134_1053"/>
<feBlend mode="normal" in="SourceGraphic" in2="effect1_dropShadow_2134_1053" result="shape"/>
</filter>
<linearGradient id="paint0_linear_2134_1053" x1="282.873" y1="216.576" x2="138.5" y2="273.5" gradientUnits="userSpaceOnUse">
<stop stop-color="#D9D9D9"/>
<stop offset="1" stop-color="#737373" stop-opacity="0"/>
</linearGradient>
<linearGradient id="paint1_linear_2134_1053" x1="210" y1="228" x2="210" y2="264.428" gradientUnits="userSpaceOnUse">
<stop stop-color="#10BE93"/>
<stop offset="1" stop-color="#11A37F"/>
</linearGradient>
<linearGradient id="paint2_linear_2134_1053" x1="434" y1="73" x2="434" y2="172.87" gradientUnits="userSpaceOnUse">
<stop stop-color="#10BE93"/>
<stop offset="1" stop-color="#11A37F"/>
</linearGradient>
<linearGradient id="paint3_linear_2134_1053" x1="267" y1="240" x2="267" y2="271.516" gradientUnits="userSpaceOnUse">
<stop stop-color="#10BE93"/>
<stop offset="1" stop-color="#11A37F"/>
</linearGradient>
<linearGradient id="paint4_linear_2134_1053" x1="322.373" y1="135" x2="322.373" y2="209.493" gradientUnits="userSpaceOnUse">
<stop stop-color="#10BE93"/>
<stop offset="1" stop-color="#11A37F"/>
</linearGradient>
<linearGradient id="paint5_linear_2134_1053" x1="377.186" y1="172" x2="377.186" y2="231.349" gradientUnits="userSpaceOnUse">
<stop stop-color="#10BE93"/>
<stop offset="1" stop-color="#11A37F"/>
</linearGradient>
<linearGradient id="paint6_linear_2134_1053" x1="70" y1="230.5" x2="554.404" y2="200.856" gradientUnits="userSpaceOnUse">
<stop stop-color="#11A37F"/>
<stop offset="0.525" stop-color="#33D3AB"/>
<stop offset="1" stop-color="#11A37F"/>
</linearGradient>
<linearGradient id="paint7_linear_2134_1053" x1="189.335" y1="226.768" x2="606.816" y2="197.574" gradientUnits="userSpaceOnUse">
<stop stop-color="#0C7259" stop-opacity="0.12"/>
<stop offset="0.0464666" stop-color="#0C7259"/>
<stop offset="0.51" stop-color="#0C7259"/>
<stop offset="0.954725" stop-color="#0C7259"/>
<stop offset="1" stop-color="#0C7259" stop-opacity="0.12"/>
</linearGradient>
<clipPath id="clip0_2134_1053">
<rect x="186" y="135" width="48" height="187" rx="8" fill="white"/>
</clipPath>
<clipPath id="clip1_2134_1053">
<rect x="410" y="26" width="48" height="296" rx="8" fill="white"/>
</clipPath>
<clipPath id="clip2_2134_1053">
<rect x="242" y="85" width="49" height="238" rx="8" fill="white"/>
</clipPath>
<clipPath id="clip3_2134_1053">
<rect x="298.373" y="46" width="48" height="277" rx="8" fill="white"/>
</clipPath>
<clipPath id="clip4_2134_1053">
<rect x="353.186" y="86" width="48" height="237" rx="8" fill="white"/>
</clipPath>
</defs>
</svg>
