<svg xmlns="http://www.w3.org/2000/svg" width="85" height="85" viewBox="0 0 85 85" fill="none">
    <rect width="85" height="85" rx="12" fill="#FCFCFD" fill-opacity="0.08"/>
    <rect x="1" y="1" width="83" height="83" rx="11" stroke="#FCFCFD" stroke-opacity="0.08" stroke-width="2"/>
    <path d="M63.7772 53.3833L56.6787 60.511C56.524 60.6668 56.3373 60.7899 56.1304 60.8725C55.923 60.9588 55.6989 61.0022 55.4729 60.9999H21.8237C21.6638 61.0001 21.5072 60.9565 21.3722 60.8742C21.2384 60.7929 21.1325 60.6756 21.0676 60.5368C21.0041 60.399 20.9847 60.2462 21.0121 60.0978C21.0392 59.9486 21.1122 59.8107 21.2217 59.7018L28.3256 52.5758C28.4797 52.4202 28.6658 52.2971 28.8721 52.2143C29.0789 52.1277 29.3023 52.0837 29.5278 52.0852H63.1752C63.3353 52.0856 63.4919 52.1297 63.6267 52.2126C63.7605 52.2939 63.8665 52.4112 63.9313 52.55C63.9949 52.6878 64.0142 52.8407 63.9869 52.989C63.9597 53.1382 63.8867 53.2744 63.7772 53.3833ZM56.6787 39.035C56.524 38.8792 56.3373 38.7561 56.1304 38.6735C55.9231 38.5866 55.6991 38.5426 55.4729 38.5443H21.8237C21.6638 38.5442 21.5072 38.5878 21.3722 38.67C21.2381 38.7518 21.1322 38.8698 21.0676 39.0092C21.0044 39.1465 20.9851 39.2987 21.0121 39.4465C21.0392 39.5956 21.1122 39.7336 21.2217 39.8425L28.3256 46.9701C28.4797 47.1257 28.6658 47.2489 28.8721 47.3317C29.079 47.4177 29.3024 47.4611 29.5278 47.4591H63.1752C63.3351 47.4592 63.4917 47.4156 63.6267 47.3334C63.7605 47.2521 63.8665 47.1347 63.9313 46.996C63.9949 46.8582 64.0142 46.7053 63.9869 46.5569C63.9597 46.4078 63.8867 46.2698 63.7772 46.161L56.6787 39.035ZM21.8237 33.9148H55.4747C55.7009 33.9166 55.9249 33.8726 56.1322 33.7857C56.3391 33.7031 56.5258 33.5799 56.6805 33.4241L63.779 26.2965C63.8885 26.1876 63.9615 26.0497 63.9887 25.9005C64.0151 25.7525 63.9951 25.6003 63.9313 25.4632C63.8665 25.3244 63.7605 25.2071 63.6267 25.1258C63.4917 25.0435 63.3351 24.9999 63.1752 25.0001H29.5278C29.3024 24.998 29.079 25.0414 28.8721 25.1275C28.6658 25.2103 28.4797 25.3334 28.3256 25.489L21.2235 32.6184C21.114 32.7273 21.041 32.8652 21.0139 33.0144C20.9863 33.162 21.005 33.3142 21.0676 33.4517C21.1325 33.5905 21.2384 33.7078 21.3722 33.7891C21.507 33.872 21.6637 33.9144 21.8237 33.9148Z" fill="#11A37F"/>
</svg>