<svg xmlns="http://www.w3.org/2000/svg" width="156" height="50" viewBox="0 0 156 50" fill="none">
    <g clip-path="url(#clip0_4527_2296)">
        <path d="M15.9061 0.5H48.8343V33.5399C48.8343 37.7728 47.1584 41.8323 44.1755 44.8254C41.1925 47.8185 37.1467 49.5 32.9281 49.5H0V16.4601C0 12.2272 1.67582 8.16771 4.6588 5.17461C7.64178 2.18151 11.6876 0.5 15.9061 0.5Z" fill="url(#paint0_linear_4527_2296)"/>
        <path d="M38.5821 19.7822L35.3173 21.2832L33.0253 22.3372L32.9231 22.3834L29.7717 23.8117C29.7717 23.7994 29.7666 23.7871 29.7625 23.7747C29.5766 22.9967 29.2179 22.2708 28.7131 21.6513L28.4219 21.0125L31.5661 19.5668L33.8918 18.4974L37.1853 16.983C37.3678 17.2688 37.5381 17.561 37.6962 17.8597L38.5566 19.7432L38.5821 19.7822Z" fill="white"/>
        <path d="M39.1145 28.4368C38.8725 29.47 38.5213 30.4743 38.0671 31.4328L27.8557 29.6836L27.9518 29.1187C28.6966 28.5115 29.262 27.7117 29.5867 26.8055L39.1145 28.4368Z" fill="white"/>
        <path d="M20.7087 30.0661L16.5835 32.9975L13.6344 35.0932C12.9303 34.3215 12.3086 33.4778 11.7798 32.5761L14.7135 30.4906L16.7746 29.0254L18.9062 27.511L20.7087 30.0661Z" fill="white"/>
        <path d="M21.1022 17.1911L19.8269 20.0477L17.959 19.2079L15.5934 18.1447L12.2632 16.6467C12.8702 15.7434 13.574 14.9096 14.3621 14.1603L17.9958 15.7936L20.7742 17.0445L21.1022 17.1911Z" fill="white"/>
        <path d="M35.5797 27.8309C35.081 29.7743 34.078 31.5504 32.6729 32.9785C31.2678 34.4065 29.5107 35.4356 27.5805 35.9609C25.6502 36.4862 23.6157 36.489 21.6841 35.969C19.7524 35.449 17.9925 34.4248 16.5835 33.0006C15.8484 32.2555 15.2192 31.4122 14.7135 30.4947L11.7798 32.5802C13.2854 35.1548 15.5253 37.2178 18.2104 38.503C20.8956 39.7883 23.9029 40.2369 26.8446 39.791C29.7862 39.3451 32.5273 38.0252 34.7142 36.0014C36.9012 33.9776 38.4338 31.3429 39.1143 28.4369L35.5797 27.8309Z" fill="white"/>
        <path d="M17.9957 15.7937C19.4272 14.7586 21.0798 14.0733 22.8219 13.7925C24.564 13.5118 26.3474 13.6433 28.0299 14.1766C29.7124 14.7099 31.2474 15.6303 32.5126 16.8643C33.7778 18.0983 34.7382 19.6119 35.3171 21.2843L38.582 19.7832C38.5758 19.7679 38.5707 19.7525 38.5646 19.7381L37.7042 17.8546C37.5427 17.5566 37.3724 17.2644 37.1933 16.978C35.8648 14.8853 34.0383 13.1572 31.8784 11.9494C29.7184 10.7415 27.2929 10.0919 24.8204 10.0591C22.3479 10.0262 19.9061 10.6111 17.715 11.7612C15.524 12.9112 13.6525 14.5902 12.2693 16.6468L15.5995 18.1448C16.2776 17.2461 17.0852 16.4538 17.9957 15.7937Z" fill="white"/>
        <path d="M13.5088 22.8295C13.6336 22.1853 13.8135 21.5531 14.0463 20.9398L10.7763 19.4695C9.48931 22.7228 9.37724 26.3254 10.4596 29.653L13.5619 27.4485C13.2282 25.9288 13.2102 24.3565 13.5088 22.8295Z" fill="white"/>
        <path d="M35.1538 20.8455L32.9027 21.9805L32.8046 22.0307L29.7166 23.5861" fill="white"/>
        <path d="M18.757 27.591L16.7634 29.008C16.2587 28.0166 15.9466 26.938 15.8438 25.8295L16.9555 25.04L18.757 27.591Z" fill="white"/>
        <path d="M20.2562 20.301L18.9809 23.1575L16.3384 21.9661C16.6978 20.9714 17.2337 20.0501 17.9202 19.2469L20.2562 20.301Z" fill="white"/>
        <path d="M33.0987 27.4064C32.6173 29.1159 31.6338 30.6402 30.2764 31.7807C28.919 32.9212 27.2506 33.625 25.4888 33.8003C23.727 33.9756 21.9534 33.6143 20.3992 32.7635C18.845 31.9127 17.5823 30.6118 16.7757 29.0305C16.7709 29.0239 16.7671 29.0166 16.7644 29.0089C15.9743 27.45 15.6626 25.691 15.8687 23.9543C16.0748 22.2176 16.7894 20.5812 17.9222 19.252L17.96 19.2089C18.9871 18.0212 20.3112 17.1297 21.7959 16.6262C23.2806 16.1227 24.8722 16.0253 26.4068 16.3442C27.9414 16.6631 29.3636 17.3866 30.5269 18.4404C31.6902 19.4941 32.5526 20.8399 33.0251 22.3392L32.923 22.3844L29.7716 23.8116C29.7716 23.7993 29.7665 23.787 29.7624 23.7747C29.4686 22.5345 28.7398 21.4419 27.7093 20.6964C26.6787 19.951 25.4153 19.6026 24.1498 19.7148C22.8844 19.8271 21.7014 20.3925 20.8172 21.3078C19.933 22.2231 19.4065 23.4271 19.3341 24.6997C19.2617 25.9723 19.6481 27.2286 20.4228 28.2389C21.1974 29.2493 22.3086 29.9461 23.5531 30.2022C24.7976 30.4582 26.0924 30.2563 27.2007 29.6334C28.3091 29.0105 29.1571 28.0082 29.5897 26.8096L33.0987 27.4064Z" fill="white"/>
        <path d="M62.442 17.5797C61.8529 17.5797 61.3515 17.4854 60.9378 17.2967C60.5305 17.1018 60.2202 16.8377 60.0071 16.5044C59.794 16.1648 59.6875 15.7812 59.6875 15.3536H60.7968C60.7968 15.5485 60.8501 15.7403 60.9566 15.929C61.0632 16.1176 61.2355 16.2748 61.4737 16.4006C61.7119 16.5201 62.0346 16.5798 62.442 16.5798C62.8118 16.5798 63.1157 16.5264 63.3539 16.4195C63.5983 16.3126 63.777 16.1711 63.8898 15.995C64.0088 15.8189 64.0684 15.624 64.0684 15.4102C64.0684 15.146 63.9556 14.9322 63.7299 14.7687C63.5043 14.5989 63.1659 14.4952 62.7146 14.4574L62.0284 14.3914C61.3954 14.3411 60.8908 14.1461 60.5148 13.8066C60.1388 13.4607 59.9507 13.0079 59.9507 12.4482C59.9507 12.0206 60.051 11.6496 60.2516 11.3351C60.4584 11.0207 60.7467 10.7754 61.1165 10.5994C61.4862 10.417 61.9155 10.3258 62.4044 10.3258C62.9058 10.3258 63.3414 10.417 63.7111 10.5994C64.0809 10.7754 64.3661 11.027 64.5666 11.354C64.7735 11.6747 64.8769 12.0583 64.8769 12.5048H63.7675C63.7675 12.3036 63.7174 12.1149 63.6171 11.9388C63.5231 11.7565 63.3758 11.6087 63.1753 11.4955C62.9747 11.3823 62.7178 11.3257 62.4044 11.3257C62.1036 11.3257 61.8529 11.3792 61.6523 11.4861C61.458 11.593 61.3107 11.7313 61.2105 11.9011C61.1102 12.0709 61.0601 12.2533 61.0601 12.4482C61.0601 12.6809 61.1478 12.8884 61.3233 13.0708C61.4988 13.2469 61.7683 13.3506 62.1318 13.3821L62.8086 13.4387C63.2912 13.4764 63.708 13.5802 64.059 13.75C64.4162 13.9135 64.692 14.1336 64.8863 14.4103C65.0868 14.687 65.1871 15.0203 65.1871 15.4102C65.1871 15.8378 65.0712 16.2151 64.8393 16.5421C64.6136 16.8691 64.294 17.1238 63.8804 17.3062C63.473 17.4885 62.9935 17.5797 62.442 17.5797Z" fill="#333B57"/>
        <path d="M68.6656 17.5797C68.2269 17.5797 67.8446 17.5042 67.5187 17.3533C67.1928 17.2024 66.9264 17.0043 66.7196 16.759C66.5128 16.5075 66.3561 16.2276 66.2495 15.9195C66.1493 15.6051 66.0991 15.2844 66.0991 14.9573V14.7781C66.0991 14.4448 66.1493 14.1241 66.2495 13.816C66.3561 13.5015 66.5128 13.2217 66.7196 12.9764C66.9264 12.7249 67.1865 12.5268 67.4999 12.3822C67.8195 12.2312 68.1893 12.1558 68.6092 12.1558C69.1545 12.1558 69.6088 12.2752 69.9723 12.5142C70.3359 12.7532 70.6085 13.0645 70.7902 13.4481C70.972 13.8254 71.0629 14.2342 71.0629 14.6744V15.1177H66.5692V14.3725H70.3202L70.0193 14.7498C70.0193 14.4102 69.9661 14.1178 69.8595 13.8726C69.753 13.621 69.5963 13.4292 69.3895 13.2971C69.1827 13.1588 68.9226 13.0896 68.6092 13.0896C68.2833 13.0896 68.0107 13.1651 67.7913 13.316C67.5719 13.4669 67.409 13.6745 67.3025 13.9386C67.1959 14.2027 67.1426 14.514 67.1426 14.8724C67.1426 15.212 67.1959 15.517 67.3025 15.7874C67.409 16.0516 67.5751 16.2622 67.8007 16.4194C68.0263 16.5704 68.3146 16.6458 68.6656 16.6458C69.0166 16.6458 69.3049 16.5704 69.5305 16.4194C69.7561 16.2622 69.894 16.0799 69.9441 15.8723H70.9689C70.8999 16.2182 70.7589 16.5201 70.5458 16.7779C70.339 17.0357 70.0758 17.2338 69.7561 17.3722C69.4365 17.5105 69.073 17.5797 68.6656 17.5797Z" fill="#333B57"/>
        <path d="M74.4472 17.5797C74.0148 17.5797 73.6356 17.5074 73.3097 17.3627C72.9901 17.2118 72.7237 17.0106 72.5106 16.759C72.3038 16.5012 72.1471 16.2182 72.0406 15.9101C71.9403 15.5956 71.8901 15.2781 71.8901 14.9573V14.7876C71.8901 14.4543 71.9434 14.1335 72.05 13.8254C72.1565 13.511 72.3163 13.228 72.5294 12.9764C72.7425 12.7249 73.0057 12.5268 73.3191 12.3822C73.6387 12.2312 74.0116 12.1558 74.4378 12.1558C74.8703 12.1558 75.2557 12.2375 75.5941 12.401C75.9388 12.5645 76.2146 12.7972 76.4214 13.0991C76.6283 13.3946 76.7442 13.7405 76.7693 14.1367H75.707C75.6694 13.8537 75.5409 13.6147 75.3215 13.4198C75.1084 13.2248 74.8139 13.1274 74.4378 13.1274C74.1119 13.1274 73.8424 13.2028 73.6293 13.3537C73.4162 13.5047 73.2564 13.7122 73.1499 13.9763C73.0433 14.2342 72.9901 14.5329 72.9901 14.8724C72.9901 15.1995 73.0402 15.495 73.1405 15.7591C73.247 16.0233 73.4068 16.2308 73.6199 16.3817C73.8393 16.5326 74.115 16.6081 74.4472 16.6081C74.7042 16.6081 74.9235 16.5641 75.1053 16.476C75.2933 16.3817 75.4437 16.2591 75.5565 16.1082C75.6694 15.9509 75.7352 15.7717 75.754 15.5705H76.8257C76.8069 15.9792 76.6909 16.3346 76.4778 16.6364C76.2647 16.932 75.9827 17.1647 75.6317 17.3344C75.2808 17.4979 74.8859 17.5797 74.4472 17.5797Z" fill="#333B57"/>
        <path d="M79.7023 17.5608C79.1069 17.5608 78.6494 17.369 78.3298 16.9854C78.0102 16.5955 77.8503 16.0233 77.8503 15.2686V12.3256H78.9503V15.4196C78.9503 15.7717 79.0474 16.0516 79.2417 16.2591C79.436 16.4603 79.6992 16.5609 80.0314 16.5609C80.3698 16.5609 80.6456 16.454 80.8587 16.2402C81.078 16.0201 81.1877 15.7214 81.1877 15.3441V12.3256H82.2876V17.4099H81.4133V15.2403H81.5261C81.5261 15.7497 81.4572 16.1773 81.3193 16.5232C81.1877 16.8628 80.9903 17.1206 80.7271 17.2967C80.4701 17.4728 80.1442 17.5608 79.7493 17.5608H79.7023Z" fill="#333B57"/>
        <path d="M83.9233 17.41V12.3256H84.7976V14.4481H84.76C84.76 13.7186 84.9198 13.1746 85.2395 12.8162C85.5591 12.4514 86.0323 12.269 86.659 12.269H86.8377V13.2406H86.4992C86.0229 13.2406 85.6563 13.3696 85.3993 13.6274C85.1486 13.8789 85.0233 14.2405 85.0233 14.7122V17.41H83.9233Z" fill="#333B57"/>
        <path d="M88.0598 17.4099V12.3256H89.1597V17.4099H88.0598ZM87.3171 13.1745V12.3256H89.1597V13.1745H87.3171ZM88.4171 11.6181C88.1914 11.6181 88.0222 11.5583 87.9094 11.4389C87.8029 11.3194 87.7496 11.1653 87.7496 10.9766C87.7496 10.7943 87.8029 10.6433 87.9094 10.5239C88.0222 10.3981 88.1914 10.3352 88.4171 10.3352C88.6489 10.3352 88.8182 10.3981 88.9247 10.5239C89.0375 10.6433 89.0939 10.7943 89.0939 10.9766C89.0939 11.1653 89.0375 11.3194 88.9247 11.4389C88.8182 11.5583 88.6489 11.6181 88.4171 11.6181Z" fill="#333B57"/>
        <path d="M92.8732 17.4665C92.4532 17.4665 92.0991 17.4099 91.8108 17.2967C91.5225 17.1835 91.3032 16.9886 91.1528 16.7119C91.0086 16.4352 90.9365 16.061 90.9365 15.5894V10.8446H91.9801V15.6837C91.9801 15.9478 92.049 16.1522 92.1869 16.2968C92.331 16.4352 92.5316 16.5044 92.7885 16.5044H93.6346V17.4665H92.8732ZM90.0999 13.1462V12.3256H93.6346V13.1462H90.0999Z" fill="#333B57"/>
        <path d="M94.5841 19.4003V18.4287H95.4208C95.615 18.4287 95.7811 18.4035 95.919 18.3532C96.0569 18.3092 96.1697 18.2274 96.2574 18.108C96.3452 17.9948 96.4173 17.8407 96.4737 17.6457L97.9496 12.3256H99.0119L97.4138 17.9099C97.3135 18.262 97.1725 18.5482 96.9907 18.7683C96.8152 18.9884 96.5896 19.1487 96.3139 19.2493C96.0444 19.35 95.7185 19.4003 95.3361 19.4003H94.5841ZM96.1446 17.2967V16.4006H97.2352V17.2967H96.1446ZM95.872 17.2967L94.1516 12.3256H95.2703L96.9155 17.2967H95.872Z" fill="#333B57"/>
        <path d="M101.541 17.41L103.947 10.5239H105.818L108.3 17.41H107.134L104.963 11.2786L105.423 11.4955H104.286L104.775 11.2786L102.669 17.41H101.541ZM103.101 15.4668L103.459 14.4858H106.335L106.702 15.4668H103.101Z" fill="#333B57"/>
        <path d="M110.998 17.5608C110.403 17.5608 109.945 17.369 109.626 16.9854C109.306 16.5955 109.146 16.0233 109.146 15.2686V12.3256H110.246V15.4196C110.246 15.7717 110.343 16.0516 110.538 16.2591C110.732 16.4603 110.995 16.5609 111.327 16.5609C111.666 16.5609 111.941 16.454 112.155 16.2402C112.374 16.0201 112.484 15.7214 112.484 15.3441V12.3256H113.584V17.4099H112.709V15.2403H112.822C112.822 15.7497 112.753 16.1773 112.615 16.5232C112.484 16.8628 112.286 17.1206 112.023 17.2967C111.766 17.4728 111.44 17.5608 111.045 17.5608H110.998Z" fill="#333B57"/>
        <path d="M117.325 17.5798C116.962 17.5798 116.629 17.5137 116.329 17.3817C116.034 17.2496 115.774 17.0641 115.548 16.8251C115.329 16.5862 115.16 16.3095 115.041 15.995C114.922 15.6806 114.862 15.3379 114.862 14.9668V14.7876C114.862 14.4229 114.918 14.0833 115.031 13.7689C115.15 13.4481 115.316 13.1683 115.53 12.9293C115.743 12.6904 115.996 12.5048 116.291 12.3728C116.592 12.2344 116.924 12.1653 117.288 12.1653C117.676 12.1653 118.024 12.2502 118.331 12.4199C118.644 12.5834 118.895 12.8381 119.083 13.184C119.277 13.5236 119.384 13.9575 119.403 14.4858L119.027 13.9669V10.5239H120.127V17.41H119.252V15.2027H119.497C119.478 15.7498 119.365 16.1994 119.158 16.5516C118.958 16.9037 118.698 17.1647 118.378 17.3345C118.058 17.498 117.707 17.5798 117.325 17.5798ZM117.532 16.627C117.814 16.627 118.068 16.5641 118.293 16.4384C118.525 16.3126 118.71 16.1302 118.848 15.8913C118.992 15.646 119.064 15.3599 119.064 15.0329V14.6273C119.064 14.3065 118.992 14.033 118.848 13.8066C118.704 13.5802 118.516 13.4073 118.284 13.2878C118.052 13.1683 117.798 13.1086 117.523 13.1086C117.215 13.1086 116.943 13.184 116.705 13.3349C116.473 13.4796 116.291 13.684 116.159 13.9481C116.028 14.2122 115.962 14.5203 115.962 14.8725C115.962 15.231 116.028 15.5422 116.159 15.8064C116.297 16.0705 116.485 16.2749 116.723 16.4195C116.962 16.5579 117.231 16.627 117.532 16.627Z" fill="#333B57"/>
        <path d="M121.988 17.4099V12.3256H123.088V17.4099H121.988ZM121.245 13.1745V12.3256H123.088V13.1745H121.245ZM122.345 11.6181C122.12 11.6181 121.95 11.5583 121.838 11.4389C121.731 11.3194 121.678 11.1653 121.678 10.9766C121.678 10.7943 121.731 10.6433 121.838 10.5239C121.95 10.3981 122.12 10.3352 122.345 10.3352C122.577 10.3352 122.746 10.3981 122.853 10.5239C122.966 10.6433 123.022 10.7943 123.022 10.9766C123.022 11.1653 122.966 11.3194 122.853 11.4389C122.746 11.5583 122.577 11.6181 122.345 11.6181Z" fill="#333B57"/>
        <path d="M126.801 17.4665C126.381 17.4665 126.027 17.4099 125.739 17.2967C125.451 17.1835 125.231 16.9886 125.081 16.7119C124.937 16.4352 124.865 16.061 124.865 15.5894V10.8446H125.908V15.6837C125.908 15.9478 125.977 16.1522 126.115 16.2968C126.259 16.4352 126.46 16.5044 126.717 16.5044H127.563V17.4665H126.801ZM124.028 13.1462V12.3256H127.563V13.1462H124.028Z" fill="#333B57"/>
        <path d="M133.664 17.5798C133.251 17.5798 132.881 17.4886 132.555 17.3062C132.235 17.1238 131.982 16.8597 131.793 16.5138C131.612 16.168 131.511 15.7498 131.493 15.2593H131.718V17.41H130.844V10.5239H131.944V13.9198L131.615 14.5329C131.634 13.9921 131.737 13.5488 131.925 13.2029C132.119 12.8507 132.373 12.5897 132.687 12.4199C133 12.2502 133.351 12.1653 133.74 12.1653C134.097 12.1653 134.42 12.2313 134.708 12.3633C135.002 12.4954 135.253 12.6809 135.46 12.9199C135.673 13.1526 135.833 13.4261 135.939 13.7406C136.052 14.055 136.109 14.3946 136.109 14.7593V14.948C136.109 15.3127 136.052 15.6523 135.939 15.9667C135.827 16.2812 135.66 16.561 135.441 16.8063C135.228 17.0452 134.971 17.2339 134.67 17.3722C134.369 17.5106 134.034 17.5798 133.664 17.5798ZM133.467 16.627C133.774 16.627 134.043 16.5516 134.275 16.4006C134.507 16.2497 134.686 16.0422 134.811 15.7781C134.943 15.5077 135.009 15.1995 135.009 14.8536C135.009 14.5015 134.943 14.1965 134.811 13.9386C134.68 13.6745 134.498 13.4701 134.266 13.3255C134.04 13.1809 133.774 13.1086 133.467 13.1086C133.191 13.1086 132.934 13.1714 132.696 13.2972C132.458 13.423 132.267 13.6054 132.123 13.8443C131.978 14.077 131.906 14.36 131.906 14.6933V15.0989C131.906 15.4196 131.978 15.6963 132.123 15.929C132.273 16.1554 132.467 16.3283 132.705 16.4478C132.944 16.5673 133.197 16.627 133.467 16.627Z" fill="#333B57"/>
        <path d="M137.02 19.4003V18.4287H137.857C138.051 18.4287 138.217 18.4035 138.355 18.3532C138.493 18.3092 138.606 18.2274 138.694 18.108C138.781 17.9948 138.854 17.8407 138.91 17.6457L140.386 12.3256H141.448L139.85 17.9099C139.75 18.262 139.609 18.5482 139.427 18.7683C139.252 18.9884 139.026 19.1487 138.75 19.2493C138.481 19.35 138.155 19.4003 137.772 19.4003H137.02ZM138.581 17.2967V16.4006H139.671V17.2967H138.581ZM138.308 17.2967L136.588 12.3256H137.707L139.352 17.2967H138.308Z" fill="#333B57"/>
        <path d="M68.5846 39.6271C67.1121 39.6271 65.8478 39.366 64.7918 38.8437C63.7357 38.3213 62.873 37.6422 62.2036 36.8064C61.5492 35.9707 61.0658 35.0603 60.7534 34.0753C60.4411 33.0902 60.2849 32.1425 60.2849 31.2321V30.7396C60.2849 29.7247 60.4411 28.7248 60.7534 27.7398C61.0807 26.7548 61.579 25.8593 62.2484 25.0534C62.9176 24.2475 63.7654 23.6057 64.7918 23.1281C65.833 22.6356 67.0601 22.3893 68.4731 22.3893C69.9457 22.3893 71.2248 22.6579 72.3107 23.1952C73.4113 23.7176 74.2889 24.4639 74.9434 25.434C75.5978 26.3891 75.992 27.5084 76.1259 28.7919H72.9353C72.8164 28.0457 72.5487 27.4189 72.1322 26.9114C71.7306 26.3891 71.2174 26.001 70.5927 25.7473C69.968 25.4787 69.2615 25.3444 68.4731 25.3444C67.6699 25.3444 66.956 25.4862 66.3313 25.7698C65.7066 26.0384 65.186 26.4264 64.7695 26.9339C64.353 27.4414 64.0332 28.0383 63.8101 28.7248C63.6018 29.4113 63.4977 30.1724 63.4977 31.0082C63.4977 31.8142 63.6018 32.5604 63.8101 33.247C64.0332 33.9335 64.3604 34.5379 64.7918 35.0603C65.2231 35.5677 65.7512 35.9632 66.3759 36.2468C67.0155 36.5304 67.7518 36.6722 68.5847 36.6722C69.8044 36.6722 70.8307 36.3737 71.6636 35.7767C72.5114 35.1648 73.0246 34.3141 73.2032 33.2246H76.3936C76.2449 34.3887 75.8507 35.4558 75.2111 36.4259C74.5715 37.396 73.6939 38.1721 72.5784 38.7542C71.4629 39.3363 70.1316 39.6273 68.5847 39.6273" fill="#333B57"/>
        <path d="M84.6486 39.6272C83.5777 39.6272 82.6332 39.4556 81.8151 39.1124C80.997 38.7691 80.3054 38.3064 79.7402 37.7244C79.1749 37.1274 78.7436 36.4558 78.4462 35.7096C78.1635 34.9633 78.0222 34.1872 78.0222 33.3813V32.9112C78.0222 32.0754 78.171 31.2844 78.4685 30.5381C78.7808 29.777 79.2196 29.1054 79.7848 28.5234C80.3649 27.9264 81.064 27.4637 81.8821 27.1354C82.7002 26.7921 83.6223 26.6205 84.6486 26.6205C85.6749 26.6205 86.5971 26.7921 87.4153 27.1354C88.2333 27.4637 88.9249 27.9264 89.4901 28.5234C90.0703 29.1054 90.5091 29.777 90.8066 30.5381C91.104 31.2844 91.2527 32.0754 91.2527 32.9112V33.3813C91.2527 34.1872 91.104 34.9633 90.8066 35.7095C90.524 36.4558 90.1 37.1273 89.5348 37.7243C88.9696 38.3064 88.2779 38.7691 87.4598 39.1124C86.6418 39.4556 85.7048 39.6273 84.6487 39.6273M84.6487 36.9633C85.4073 36.9633 86.0469 36.7991 86.5675 36.4708C87.0881 36.1275 87.4823 35.6723 87.75 35.1052C88.0178 34.5232 88.1516 33.8665 88.1516 33.1352C88.1516 32.3889 88.0103 31.7322 87.7277 31.1651C87.4599 30.5831 87.0583 30.1279 86.5229 29.7995C86.0023 29.4562 85.3776 29.2846 84.6488 29.2846C83.9199 29.2846 83.2877 29.4562 82.7523 29.7995C82.2317 30.1279 81.8301 30.5831 81.5475 31.1651C81.2649 31.7322 81.1236 32.3889 81.1236 33.1352C81.1236 33.8665 81.2575 34.5232 81.5252 35.1052C81.8078 35.6723 82.2094 36.1275 82.73 36.4708C83.2506 36.7991 83.8902 36.9633 84.6487 36.9633Z" fill="#333B57"/>
        <path d="M94.5548 39.2019V27.0458H97.6561V39.202L94.5548 39.2019ZM92.8591 29.3741V27.0458H97.6561L97.656 29.3741H92.8591ZM95.6927 25.5907C95.0828 25.5907 94.6291 25.434 94.3316 25.1206C94.049 24.7922 93.9078 24.3893 93.9078 23.9117C93.9078 23.4043 94.0491 22.9938 94.3317 22.6803C94.6291 22.367 95.0828 22.2103 95.6926 22.2103C96.3025 22.2103 96.7487 22.367 97.0312 22.6804C97.314 22.9938 97.4553 23.4042 97.4553 23.9116C97.4553 24.3892 97.314 24.7922 97.0312 25.1205C96.7487 25.434 96.3026 25.5907 95.6927 25.5907Z" fill="#333B57"/>
        <path d="M101.226 39.2018V27.0458H103.68V32.262H103.457C103.457 31.0232 103.621 29.9934 103.948 29.1726C104.275 28.3368 104.759 27.71 105.398 27.292C106.053 26.8741 106.863 26.6652 107.83 26.6652H107.964C109.407 26.6652 110.5 27.1353 111.244 28.0756C111.988 29.0009 112.359 30.3889 112.359 32.2395V39.2018H109.258V31.9709C109.258 31.2247 109.042 30.6202 108.611 30.1576C108.195 29.6949 107.615 29.4636 106.871 29.4636C106.112 29.4636 105.495 29.7024 105.019 30.18C104.558 30.6426 104.327 31.2695 104.327 32.0604V39.2018H101.226Z" fill="#333B57"/>
        <path d="M120.079 39.5824C118.413 39.5824 117.104 39.2317 116.152 38.5303C115.215 37.8139 114.724 36.8289 114.68 35.5753H117.469C117.513 35.9931 117.744 36.3737 118.16 36.717C118.577 37.0602 119.231 37.2318 120.124 37.2318C120.867 37.2318 121.455 37.0975 121.886 36.8288C122.332 36.5602 122.556 36.1946 122.556 35.732C122.556 35.3289 122.384 35.008 122.042 34.7692C121.715 34.5304 121.15 34.3738 120.347 34.2992L119.276 34.1872C117.922 34.038 116.881 33.65 116.152 33.0231C115.423 32.3962 115.059 31.5604 115.059 30.5158C115.059 29.68 115.267 28.9785 115.684 28.4114C116.1 27.8442 116.673 27.4189 117.402 27.1354C118.145 26.8369 118.993 26.6876 119.945 26.6876C121.433 26.6876 122.637 27.016 123.56 27.6726C124.482 28.3293 124.965 29.292 125.01 30.5606H122.221C122.191 30.1426 121.983 29.7845 121.596 29.486C121.209 29.1876 120.652 29.0383 119.923 29.0383C119.268 29.0383 118.763 29.1651 118.406 29.4188C118.049 29.6725 117.87 30.0008 117.87 30.4038C117.87 30.7918 118.011 31.0903 118.294 31.2993C118.592 31.5083 119.068 31.6501 119.722 31.7247L120.793 31.8366C122.221 31.9859 123.336 32.3814 124.14 33.0231C124.958 33.6649 125.367 34.5305 125.367 35.62C125.367 36.4259 125.144 37.1274 124.697 37.7244C124.266 38.3064 123.656 38.7616 122.868 39.09C122.08 39.4183 121.15 39.5824 120.079 39.5824Z" fill="#333B57"/>
        <path d="M132.06 39.5825C130.662 39.5825 129.576 39.1198 128.803 38.1945C128.044 37.2692 127.665 35.8961 127.665 34.0753V27.0234H130.766V34.3439C130.766 35.0901 130.974 35.6871 131.391 36.1349C131.807 36.5678 132.372 36.7842 133.086 36.7842C133.8 36.7842 134.38 36.5528 134.827 36.0901C135.288 35.6274 135.518 35.0006 135.518 34.2097V27.0234H138.62V39.2019H136.165V34.0306H136.411C136.411 35.2544 136.255 36.2767 135.942 37.0975C135.63 37.9184 135.161 38.5378 134.537 38.9557C133.912 39.3735 133.131 39.5825 132.194 39.5825H132.06Z" fill="#333B57"/>
        <path d="M142.346 39.2018V22.8594H145.447V39.2019L142.346 39.2018ZM140.828 25.1877V22.8594H145.447L145.447 25.1877H140.828Z" fill="#333B57"/>
        <path d="M154.26 39.3585C153.144 39.3585 152.222 39.2168 151.493 38.9332C150.779 38.6347 150.244 38.1422 149.887 37.4558C149.53 36.7543 149.351 35.814 149.351 34.635L149.374 23.6206H152.274L152.252 34.8365C152.252 35.4335 152.408 35.8961 152.72 36.2244C153.048 36.5379 153.509 36.6946 154.104 36.6946H156V39.3586L154.26 39.3585ZM147.433 29.3293V27.0459H156V29.3293H147.433Z" fill="#333B57"/>
    </g>
    <defs>
        <linearGradient id="paint0_linear_4527_2296" x1="0.780693" y1="1.72218" x2="72.4989" y2="71.8746" gradientUnits="userSpaceOnUse">
            <stop stop-color="#3B916F"/>
            <stop offset="1" stop-color="#096AA5"/>
        </linearGradient>
        <clipPath id="clip0_4527_2296">
            <rect width="156" height="49" fill="white" transform="translate(0 0.5)"/>
        </clipPath>
    </defs>
</svg>