<svg xmlns="http://www.w3.org/2000/svg" width="217" height="102" viewBox="0 0 217 102" fill="none">
    <path d="M115.647 42.8445V48.4953H115.7C116.639 47.2634 117.966 46.6608 119.709 46.6608C120.486 46.6608 121.21 46.7813 121.907 47.0357C122.591 47.2902 123.207 47.6651 123.743 48.174C124.28 48.6828 124.695 49.3122 125.004 50.0754C125.312 50.8387 125.459 51.7225 125.459 52.7134C125.459 53.8382 125.258 54.8827 124.843 55.8468C124.427 56.8109 123.784 57.5876 122.912 58.1634C122.041 58.7392 120.955 59.0338 119.655 59.0338C117.778 59.0338 116.451 58.4312 115.647 57.2395H115.593V58.7124H112.027V42.8445H115.647ZM101.987 46.326C108.904 46.326 108.314 53.7445 108.314 53.7445H98.8369C99.2257 55.2175 100.499 56.195 102.242 56.195C104.36 56.195 105.499 54.9229 105.499 54.9229L107.51 56.9716C106.478 58.0027 105.084 58.9401 102.215 58.9401C97.7779 58.9401 95.4186 56.0075 95.4186 52.9009C95.4186 49.7942 97.1881 46.326 101.987 46.326ZM188.155 46.3127C191.13 46.3127 193.021 47.4509 193.021 47.4509L191.801 50.062C187.833 48.0133 186.05 49.4595 186.05 50.1826C186.05 50.9057 186.76 50.9592 189.522 51.4681C192.283 51.9769 193.57 53.1285 193.57 54.9898C193.57 56.8511 191.975 58.8999 188.074 58.8999C184.173 58.8999 182.39 57.6546 182.39 57.6546L183.57 55.0568C186.626 56.985 190.098 56.3691 190.098 55.2175C190.098 54.3471 188.945 54.173 187.699 54.0257L187.163 53.9587C186.921 53.932 186.693 53.9052 186.466 53.865C184.884 53.6106 182.538 52.767 182.538 50.3432C182.538 47.9195 185.179 46.3127 188.155 46.3127ZM170.715 42.0142V51.602L175.889 46.634H180.112L174.977 51.5484L180.608 58.8731H176.412L172.565 53.865L170.701 55.646V58.8731H167.243V42.0142H170.715ZM158.315 46.2323C160.768 46.2323 162.913 47.4509 164.106 49.2854L161.184 50.9994C160.634 49.9549 159.562 49.2586 158.315 49.2586C156.519 49.2586 155.058 50.745 155.058 52.5661C155.058 54.4006 156.519 55.8736 158.315 55.8736C159.495 55.8736 160.527 55.2308 161.103 54.2667L164.039 55.9406C162.832 57.7081 160.728 58.8865 158.315 58.8865C154.575 58.8865 151.545 56.0477 151.545 52.5527C151.545 49.0711 154.575 46.2323 158.315 46.2323ZM142.242 46.2323C145.982 46.2323 149.012 49.0711 149.012 52.5661C149.012 56.0611 145.982 58.8999 142.242 58.8999C138.502 58.8999 135.473 56.0611 135.473 52.5661C135.459 49.0711 138.502 46.2323 142.242 46.2323ZM80.7536 46.5939V58.7794H77.0002V46.5939H80.7536ZM73.6221 42.898V45.9511H65.2171V49.9951H72.6435V53.008H65.2171V58.7794H61.4637V42.898H73.6221ZM88.7698 48.107C88.7698 48.107 90.0969 46.0314 92.8449 46.3528V49.7541C92.8449 49.7541 89.8556 48.9908 88.7698 52.0707V58.7794H85.1906V46.5939H88.6089L88.7698 48.0267V48.107ZM131.88 41.9607V58.699H128.1V41.9607H131.88ZM118.609 49.3256C116.532 49.3256 115.499 50.5843 115.499 53.1151C115.499 54.0659 115.767 54.8693 116.304 55.5254C116.84 56.1682 117.644 56.503 118.717 56.503C119.44 56.503 120.017 56.3155 120.473 55.9406C120.915 55.5656 121.237 55.1103 121.424 54.5613C121.612 54.0257 121.706 53.4767 121.706 52.941C121.706 51.91 121.465 51.0396 120.969 50.3566C120.473 49.6737 119.682 49.3256 118.609 49.3256ZM142.242 49.2586C140.446 49.2586 138.985 50.745 138.985 52.5661C138.985 54.4006 140.446 55.8736 142.242 55.8736C144.039 55.8736 145.5 54.3872 145.5 52.5661C145.486 50.7316 144.039 49.2586 142.242 49.2586ZM102.041 48.9774C100.204 48.9774 99.1989 50.1022 98.8503 51.5752H104.99C104.963 51.1869 104.346 48.9774 102.041 48.9774ZM78.8769 40.8492C80.0967 40.8492 81.0887 41.7598 81.0887 42.8712C81.0887 43.9827 80.0967 44.8932 78.8769 44.8932C77.657 44.8932 76.665 43.9827 76.665 42.8712C76.665 41.7464 77.657 40.8492 78.8769 40.8492Z" fill="#475173"/>
    <path d="M48.9065 38C49.4695 38 49.9253 38.4553 49.9253 39.0177V62.5585C49.9253 63.1209 49.4695 63.5762 48.9065 63.5762H25.0188C24.4558 63.5762 24 63.1209 24 62.5585V39.0311C24 38.4687 24.4558 38.0134 25.0188 38.0134H48.9065V38ZM36.9627 45.1105L29.7508 56.4792H44.1611L36.9627 45.1105Z" fill="#475173"/>
</svg>