<svg width="233" height="102" viewBox="0 0 233 102" fill="none" xmlns="http://www.w3.org/2000/svg">
<g clip-path="url(#clip0_4323_2394)">
<path fill-rule="evenodd" clip-rule="evenodd" d="M44.6792 57.3333H51.0189V51H44.6792V44.6667H57.3585V63.6667H38.3396V57.3333H32V32H57.3585V38.3333H38.3396V57.3333H44.6792Z" fill="#475173"/>
<path d="M63.6981 38.3334H57.3585V44.6667H63.6981V38.3334Z" fill="#475173"/>
<path d="M38.3396 63.6666H32V70H38.3396V63.6666Z" fill="#475173"/>
<path d="M88.7412 61.8997C81.9261 61.8997 78.9132 57.2779 78.9132 51.2597C78.9132 45.2699 82.1084 40.6197 89.2896 40.6197C95.5278 40.6197 98.5407 43.3557 99.0875 48.2798H95.8321C95.4057 44.9058 93.4579 43.2037 89.1675 43.2037C84.2686 43.2037 82.1987 45.9998 82.1987 51.2597C82.1987 56.4578 84.1466 59.3157 89.1977 59.3157C93.9445 59.3157 95.6181 56.6398 96.0143 53.5682H87.4638V51.2597H99.0574V61.3819H96.2267V57.0958C95.2837 60.0139 92.667 61.8997 88.7412 61.8997ZM107.161 61.7778C104.056 61.7778 102.11 60.1058 102.11 57.308C102.11 54.876 103.327 53.2958 106.735 52.7179L110.538 52.0798C111.998 51.836 112.669 51.38 112.669 50.316C112.669 48.948 111.939 48.0059 109.321 48.0059C106.825 48.0059 105.639 49.0098 105.486 50.924H102.443C102.474 47.7019 104.879 45.6658 109.199 45.6658C113.399 45.6658 115.467 47.5816 115.467 50.3778V57.916C115.467 59.0402 115.499 59.9538 115.62 61.3835H112.851C112.728 60.2424 112.667 59.0954 112.669 57.9477C112.06 59.8635 110.386 61.7778 107.161 61.7778ZM107.8 59.436C110.995 59.436 112.669 57.0357 112.669 53.9957V53.0837C111.846 53.6917 110.873 53.9339 109.96 54.1477L107.86 54.6338C105.974 55.0597 105.153 55.7896 105.153 57.1877C105.153 58.6459 106.218 59.436 107.8 59.436ZM129.586 46.1819H132.629V61.3819H129.586V58.068C128.703 60.2878 127.059 61.868 124.199 61.868C120.152 61.868 118.539 59.6498 118.539 55.6677V46.1835H121.582V55.3938C121.582 58.5858 123.104 59.3458 125.142 59.3458C127.852 59.3458 129.586 57.1259 129.586 52.596V46.1819ZM144.831 45.6958C148.879 45.6958 150.369 47.9157 150.369 51.8978V61.3819H147.326V52.1717C147.326 48.9797 145.866 48.2197 143.95 48.2197C140.967 48.2197 139.322 50.1355 139.322 54.9678V61.3819H136.279V46.1819H139.322V49.5861C140.236 47.3378 141.91 45.6958 144.831 45.6958ZM159.739 61.3819C156.057 61.3819 155.142 59.9538 155.142 56.9138V48.5221H152.253V46.44L155.144 46.1819L156.666 42.7461H158.187V46.1819H163.056V48.5237H158.187V58.9499H162.752V61.3819H159.739ZM165.745 61.3819V40.1019H168.788V61.3819H165.745ZM179.388 59.6197C182.157 59.6197 183.374 58.372 183.801 56.7918H186.601C186.327 58.8898 184.652 61.868 179.296 61.868C173.881 61.868 171.598 58.2517 171.598 53.7518C171.598 49.3138 174.093 45.6958 179.298 45.6958C184.135 45.6958 186.631 49.1317 186.631 53.4779C186.631 53.8738 186.631 54.2379 186.57 54.6338H174.581C174.824 58.4638 176.772 59.6197 179.388 59.6197ZM179.328 47.9458C176.711 47.9458 174.976 49.0398 174.611 52.4139H183.709C183.557 49.3438 182.035 47.9458 179.328 47.9458ZM195.163 61.3819C191.481 61.3819 190.568 59.9538 190.568 56.9138V48.5221H187.677V46.44L190.568 46.1819L192.09 42.7461H193.611V46.1819H198.48V48.5237H193.611V58.9499H198.176V61.3819H195.163Z" fill="#475173"/>
<mask id="mask0_4323_2394" style="mask-type:luminance" maskUnits="userSpaceOnUse" x="77" y="38" width="123" height="25">
<path d="M77.3283 38.5186H199.366V62.2686H77.3283V38.5186Z" fill="white"/>
<path d="M88.7412 61.8997C81.9261 61.8997 78.9132 57.2779 78.9132 51.2597C78.9132 45.2699 82.1084 40.6197 89.2896 40.6197C95.5278 40.6197 98.5407 43.3557 99.0875 48.2798H95.8321C95.4057 44.9058 93.4579 43.2037 89.1675 43.2037C84.2686 43.2037 82.1987 45.9998 82.1987 51.2597C82.1987 56.4578 84.1466 59.3157 89.1977 59.3157C93.9445 59.3157 95.6181 56.6398 96.0143 53.5682H87.4638V51.2597H99.0574V61.3819H96.2267V57.0958C95.2837 60.0139 92.667 61.8997 88.7412 61.8997ZM107.161 61.7778C104.056 61.7778 102.11 60.1058 102.11 57.308C102.11 54.876 103.327 53.2958 106.735 52.7179L110.538 52.0798C111.998 51.836 112.669 51.38 112.669 50.316C112.669 48.948 111.939 48.0059 109.321 48.0059C106.825 48.0059 105.639 49.0098 105.486 50.924H102.443C102.474 47.7019 104.879 45.6658 109.199 45.6658C113.399 45.6658 115.467 47.5816 115.467 50.3778V57.916C115.467 59.0402 115.499 59.9538 115.62 61.3835H112.851C112.728 60.2424 112.667 59.0954 112.669 57.9477C112.06 59.8635 110.386 61.7778 107.161 61.7778ZM107.8 59.436C110.995 59.436 112.669 57.0357 112.669 53.9957V53.0837C111.846 53.6917 110.873 53.9339 109.96 54.1477L107.86 54.6338C105.974 55.0597 105.153 55.7896 105.153 57.1877C105.153 58.6459 106.218 59.436 107.8 59.436ZM129.586 46.1819H132.629V61.3819H129.586V58.068C128.703 60.2878 127.059 61.868 124.199 61.868C120.152 61.868 118.539 59.6498 118.539 55.6677V46.1835H121.582V55.3938C121.582 58.5858 123.104 59.3458 125.142 59.3458C127.852 59.3458 129.586 57.1259 129.586 52.596V46.1819ZM144.831 45.6958C148.879 45.6958 150.369 47.9157 150.369 51.8978V61.3819H147.326V52.1717C147.326 48.9797 145.866 48.2197 143.95 48.2197C140.967 48.2197 139.322 50.1355 139.322 54.9678V61.3819H136.279V46.1819H139.322V49.5861C140.236 47.3378 141.91 45.6958 144.831 45.6958ZM159.739 61.3819C156.057 61.3819 155.142 59.9538 155.142 56.9138V48.5221H152.253V46.44L155.144 46.1819L156.666 42.7461H158.187V46.1819H163.056V48.5237H158.187V58.9499H162.752V61.3819H159.739ZM165.745 61.3819V40.1019H168.788V61.3819H165.745ZM179.388 59.6197C182.157 59.6197 183.374 58.372 183.801 56.7918H186.601C186.327 58.8898 184.652 61.868 179.296 61.868C173.881 61.868 171.598 58.2517 171.598 53.7518C171.598 49.3138 174.093 45.6958 179.298 45.6958C184.135 45.6958 186.631 49.1317 186.631 53.4779C186.631 53.8738 186.631 54.2379 186.57 54.6338H174.581C174.824 58.4638 176.772 59.6197 179.388 59.6197ZM179.328 47.9458C176.711 47.9458 174.976 49.0398 174.611 52.4139H183.709C183.557 49.3438 182.035 47.9458 179.328 47.9458ZM195.163 61.3819C191.481 61.3819 190.568 59.9538 190.568 56.9138V48.5221H187.677V46.44L190.568 46.1819L192.09 42.7461H193.611V46.1819H198.48V48.5237H193.611V58.9499H198.176V61.3819H195.163Z" fill="black"/>
</mask>
<g mask="url(#mask0_4323_2394)">
<path d="M88.7412 61.8997C81.9261 61.8997 78.9132 57.2779 78.9132 51.2597C78.9132 45.2699 82.1084 40.6197 89.2896 40.6197C95.5278 40.6197 98.5407 43.3557 99.0875 48.2798H95.8321C95.4057 44.9058 93.4579 43.2037 89.1675 43.2037C84.2686 43.2037 82.1987 45.9998 82.1987 51.2597C82.1987 56.4578 84.1466 59.3157 89.1977 59.3157C93.9445 59.3157 95.6181 56.6398 96.0143 53.5682H87.4638V51.2597H99.0574V61.3819H96.2267V57.0958C95.2837 60.0139 92.667 61.8997 88.7412 61.8997ZM107.161 61.7778C104.056 61.7778 102.11 60.1058 102.11 57.308C102.11 54.876 103.327 53.2958 106.735 52.7179L110.538 52.0798C111.998 51.836 112.669 51.38 112.669 50.316C112.669 48.948 111.939 48.0059 109.321 48.0059C106.825 48.0059 105.639 49.0098 105.486 50.924H102.443C102.474 47.7019 104.879 45.6658 109.199 45.6658C113.399 45.6658 115.467 47.5816 115.467 50.3778V57.916C115.467 59.0402 115.499 59.9538 115.62 61.3835H112.851C112.728 60.2424 112.667 59.0954 112.669 57.9477C112.06 59.8635 110.386 61.7778 107.161 61.7778ZM107.8 59.436C110.995 59.436 112.669 57.0357 112.669 53.9957V53.0837C111.846 53.6917 110.873 53.9339 109.96 54.1477L107.86 54.6338C105.974 55.0597 105.153 55.7896 105.153 57.1877C105.153 58.6459 106.218 59.436 107.8 59.436ZM129.586 46.1819H132.629V61.3819H129.586V58.068C128.703 60.2878 127.059 61.868 124.199 61.868C120.152 61.868 118.539 59.6498 118.539 55.6677V46.1835H121.582V55.3938C121.582 58.5858 123.104 59.3458 125.142 59.3458C127.852 59.3458 129.586 57.1259 129.586 52.596V46.1819ZM144.831 45.6958C148.879 45.6958 150.369 47.9157 150.369 51.8978V61.3819H147.326V52.1717C147.326 48.9797 145.866 48.2197 143.95 48.2197C140.967 48.2197 139.322 50.1355 139.322 54.9678V61.3819H136.279V46.1819H139.322V49.5861C140.236 47.3378 141.91 45.6958 144.831 45.6958ZM159.739 61.3819C156.057 61.3819 155.142 59.9538 155.142 56.9138V48.5221H152.253V46.44L155.144 46.1819L156.666 42.7461H158.187V46.1819H163.056V48.5237H158.187V58.9499H162.752V61.3819H159.739ZM165.745 61.3819V40.1019H168.788V61.3819H165.745ZM179.388 59.6197C182.157 59.6197 183.374 58.372 183.801 56.7918H186.601C186.327 58.8898 184.652 61.868 179.296 61.868C173.881 61.868 171.598 58.2517 171.598 53.7518C171.598 49.3138 174.093 45.6958 179.298 45.6958C184.135 45.6958 186.631 49.1317 186.631 53.4779C186.631 53.8738 186.631 54.2379 186.57 54.6338H174.581C174.824 58.4638 176.772 59.6197 179.388 59.6197ZM179.328 47.9458C176.711 47.9458 174.976 49.0398 174.611 52.4139H183.709C183.557 49.3438 182.035 47.9458 179.328 47.9458ZM195.163 61.3819C191.481 61.3819 190.568 59.9538 190.568 56.9138V48.5221H187.677V46.44L190.568 46.1819L192.09 42.7461H193.611V46.1819H198.48V48.5237H193.611V58.9499H198.176V61.3819H195.163Z" stroke="#475173" stroke-width="0.25"/>
</g>
</g>
<defs>
<clipPath id="clip0_4323_2394">
<rect width="168" height="38" fill="white" transform="translate(32 32)"/>
</clipPath>
</defs>
</svg>
