<svg xmlns="http://www.w3.org/2000/svg" width="30" height="30" viewBox="0 0 30 30" fill="none">
    <rect width="30" height="30" rx="15" fill="#11A37F"/>
    <path fill-rule="evenodd" clip-rule="evenodd" d="M12.8682 7.4102C9.73592 8.34292 7.12676 11.2077 7.00411 14.872C6.85073 19.454 11.0145 23 15.6005 23C16.6799 23 17.0729 22.9456 17.8154 22.7335C18.2819 22.6003 18.3592 22.3338 18.3592 22.0673C18.3592 21.5343 18.3592 20.2031 18.3592 19.6022C18.3592 18.4696 18.8932 17.8259 19.8657 17.8259C21.0652 17.8259 21.8984 17.8256 22.5429 17.8256C22.8059 17.8256 23 17.632 23 17.2929C23 16.6267 23 14.2305 23 13.5643C23 13.3299 22.8094 13.1077 22.5429 13.1077C21.3901 13.1077 19.7465 13.1077 18.7333 13.1077C18.4286 13.1077 18.2762 13.336 18.2762 13.5643C18.2762 14.0973 18.2762 14.4232 18.2762 15.0052C18.2095 17.1372 15.6486 18.333 13.8678 17.2704C12.3469 16.3628 12.1172 14.2211 13.5346 13.0065C14.8836 11.8506 16.4098 12.499 17.2095 12.499C17.5143 12.499 17.819 12.3003 17.819 11.9663C17.819 10.8337 17.819 8.64468 17.819 7.93329C17.819 7.47672 17.5523 7.33727 17.2857 7.24844C15.7474 6.73583 13.8045 7.13139 12.8682 7.4102Z" fill="#FCFCFD"/>
</svg>