<svg width="1440" height="1227" viewBox="0 0 1440 1227" fill="none" xmlns="http://www.w3.org/2000/svg">
<g clip-path="url(#clip0_2442_2545)">
<g opacity="0.64">
<g filter="url(#filter0_di_2442_2545)">
<path d="M1281 746C827.372 746 692.533 746 159 746C159 436.168 410.168 185 720 185C1029.83 185 1281 436.168 1281 746Z" fill="#D9D9D9" fill-opacity="0.01" shape-rendering="crispEdges"/>
<path d="M1280.25 745.25H1278.35H1275.7H1273.06H1270.43H1267.8H1265.18H1262.57H1259.97H1257.37H1254.78H1252.2H1249.62H1247.05H1244.49H1241.93H1239.38H1236.84H1234.31H1231.78H1229.26H1226.74H1224.23H1221.73H1219.24H1216.75H1214.26H1211.79H1209.32H1206.86H1204.4H1201.95H1199.51H1197.07H1194.64H1192.21H1189.79H1187.38H1184.97H1182.57H1180.18H1177.79H1175.4H1173.03H1170.66H1168.29H1165.93H1163.58H1161.23H1158.89H1156.55H1154.22H1151.9H1149.58H1147.27H1144.96H1142.66H1140.36H1138.07H1135.78H1133.5H1131.23H1128.96H1126.69H1124.43H1122.18H1119.93H1117.68H1115.45H1113.21H1110.98H1108.76H1106.54H1104.33H1102.12H1099.92H1097.72H1095.53H1093.34H1091.15H1088.97H1086.8H1084.63H1082.46H1080.3H1078.15H1076H1073.85H1071.71H1069.57H1067.44H1065.31H1063.18H1061.06H1058.95H1056.83H1054.73H1052.62H1050.52H1048.43H1046.34H1044.25H1042.17H1040.09H1038.02H1035.95H1033.88H1031.82H1029.76H1027.7H1025.65H1023.6H1021.56H1019.52H1017.48H1015.45H1013.42H1011.4H1009.37H1007.36H1005.34H1003.33H1001.32H999.316H997.314H995.316H993.321H991.33H989.341H987.356H985.374H983.395H981.419H979.447H977.477H975.51H973.547H971.586H969.628H967.673H965.721H963.771H961.825H959.881H957.94H956.001H954.065H952.132H950.201H948.273H946.348H944.425H942.504H940.586H938.67H936.756H934.845H932.936H931.03H929.125H927.223H925.323H923.425H921.53H919.636H917.744H915.855H913.967H912.081H910.197H908.315H906.435H904.557H902.68H900.806H898.932H897.061H895.191H893.323H891.457H889.592H887.728H885.866H884.006H882.147H880.289H878.433H876.578H874.724H872.872H871.021H869.171H867.322H865.474H863.627H861.782H859.938H858.094H856.252H854.41H852.569H850.73H848.891H847.053H845.216H843.379H841.543H839.708H837.874H836.04H834.207H832.374H830.542H828.71H826.879H825.048H823.218H821.388H819.558H817.729H815.9H814.071H812.242H810.414H808.586H806.758H804.929H803.101H801.273H799.445H797.617H795.789H793.961H792.132H790.304H788.475H786.646H784.816H782.987H781.157H779.326H777.496H775.664H773.833H772.001H770.168H768.335H766.501H764.667H762.831H760.996H759.159H757.322H755.484H753.645H751.805H749.964H748.123H746.28H744.437H742.592H740.747H738.9H737.053H735.204H733.354H731.503H729.65H727.796H725.941H724.085H722.227H720.368H718.508H716.646H714.782H712.917H711.051H709.183H707.313H705.441H703.568H701.693H699.817H697.939H696.058H694.176H692.292H690.407H688.519H686.629H684.738H682.844H680.948H679.05H677.15H675.248H673.343H671.437H669.528H667.617H665.703H663.787H661.869H659.948H658.025H656.099H654.171H652.241H650.307H648.371H646.433H644.492H642.548H640.601H638.652H636.699H634.744H632.786H630.825H628.862H626.895H624.925H622.952H620.976H618.997H617.015H615.03H613.042H611.05H609.055H607.057H605.055H603.05H601.042H599.03H597.015H594.997H592.975H590.949H588.92H586.887H584.85H582.81H580.766H578.719H576.667H574.612H572.553H570.49H568.423H566.353H564.278H562.199H560.117H558.03H555.939H553.844H551.745H549.642H547.534H545.423H543.306H541.186H539.061H536.932H534.799H532.661H530.518H528.372H526.22H524.064H521.903H519.738H517.568H515.394H513.214H511.03H508.841H506.647H504.449H502.245H500.037H497.824H495.605H493.382H491.153H488.92H486.681H484.437H482.188H479.934H477.675H475.41H473.14H470.865H468.584H466.298H464.006H461.709H459.407H457.099H454.785H452.466H450.141H447.811H445.474H443.132H440.785H438.431H436.072H433.707H431.336H428.959H426.576H424.187H421.792H419.391H416.984H414.571H412.152H409.726H407.294H404.856H402.412H399.962H397.505H395.042H392.572H390.096H387.614H385.125H382.629H380.127H377.619H375.103H372.581H370.053H367.517H364.975H362.426H359.871H357.308H354.739H352.162H349.579H346.989H344.392H341.787H339.176H336.557H333.932H331.299H328.659H326.012H323.357H320.696H318.027H315.35H312.666H309.975H307.276H304.57H301.856H299.135H296.406H293.669H290.925H288.173H285.414H282.647H279.871H277.089H274.298H271.499H268.693H265.878H263.056H260.225H257.387H254.54H251.686H248.823H245.952H243.073H240.186H237.29H234.386H231.474H228.553H225.624H222.687H219.741H216.787H213.824H210.853H207.873H204.884H201.887H198.881H195.866H192.843H189.811H186.77H183.72H180.661H177.594H174.517H171.432H168.338H165.234H162.122H159.75C160.155 436.177 410.833 185.75 720 185.75C1029.17 185.75 1279.84 436.177 1280.25 745.25Z" stroke="url(#paint0_linear_2442_2545)" stroke-opacity="0.42" stroke-width="1.5" shape-rendering="crispEdges"/>
</g>
<g filter="url(#filter1_di_2442_2545)">
<path d="M1167 739C805.553 739 698.114 739 273 739C273 492.129 473.129 292 720 292C966.871 292 1167 492.129 1167 739Z" fill="#D9D9D9" fill-opacity="0.01" shape-rendering="crispEdges"/>
<path d="M274.001 738C274.541 492.141 474.014 293 720 293C965.986 293 1165.46 492.141 1166 738H1164.89H1162.78H1160.67H1158.57H1156.48H1154.4H1152.32H1150.24H1148.17H1146.11H1144.05H1142H1139.95H1137.91H1135.87H1133.84H1131.82H1129.8H1127.78H1125.77H1123.77H1121.77H1119.78H1117.79H1115.8H1113.83H1111.85H1109.89H1107.92H1105.97H1104.01H1102.07H1100.12H1098.19H1096.25H1094.33H1092.4H1090.49H1088.57H1086.66H1084.76H1082.86H1080.97H1079.08H1077.2H1075.32H1073.44H1071.57H1069.7H1067.84H1065.99H1064.13H1062.29H1060.44H1058.6H1056.77H1054.94H1053.11H1051.29H1049.47H1047.66H1045.85H1044.05H1042.25H1040.45H1038.66H1036.87H1035.09H1033.31H1031.53H1029.76H1027.99H1026.23H1024.47H1022.72H1020.96H1019.22H1017.47H1015.73H1014H1012.26H1010.53H1008.81H1007.09H1005.37H1003.65H1001.94H1000.24H998.534H996.834H995.138H993.445H991.755H990.069H988.387H986.708H985.032H983.359H981.69H980.024H978.362H976.702H975.046H973.393H971.743H970.097H968.453H966.812H965.175H963.54H961.909H960.281H958.655H957.032H955.413H953.796H952.182H950.571H948.962H947.357H945.754H944.154H942.556H940.962H939.37H937.78H936.193H934.609H933.027H931.448H929.871H928.297H926.725H925.155H923.588H922.024H920.461H918.901H917.344H915.788H914.235H912.684H911.135H909.588H908.044H906.501H904.961H903.422H901.886H900.352H898.82H897.289H895.761H894.234H892.71H891.187H889.666H888.147H886.629H885.114H883.6H882.088H880.577H879.068H877.561H876.055H874.551H873.049H871.548H870.048H868.55H867.053H865.558H864.064H862.572H861.081H859.591H858.102H856.615H855.129H853.644H852.161H850.678H849.197H847.717H846.238H844.76H843.283H841.807H840.332H838.858H837.385H835.912H834.441H832.971H831.501H830.032H828.564H827.097H825.63H824.164H822.699H821.235H819.771H818.307H816.845H815.382H813.921H812.46H810.999H809.539H808.079H806.619H805.16H803.702H802.243H800.785H799.327H797.87H796.412H794.955H793.498H792.041H790.584H789.128H787.671H786.214H784.758H783.301H781.845H780.388H778.931H777.474H776.017H774.56H773.103H771.645H770.187H768.729H767.271H765.812H764.353H762.894H761.434H759.973H758.513H757.052H755.59H754.128H752.665H751.202H749.738H748.273H746.808H745.342H743.875H742.408H740.94H739.471H738.001H736.531H735.06H733.587H732.114H730.64H729.165H727.689H726.212H724.734H723.255H721.775H720.293H718.811H717.327H715.843H714.357H712.869H711.381H709.891H708.4H706.907H705.413H703.918H702.422H700.923H699.424H697.923H696.42H694.916H693.41H691.903H690.394H688.884H687.371H685.857H684.342H682.824H681.305H679.784H678.261H676.737H675.21H673.682H672.151H670.619H669.085H667.548H666.01H664.469H662.927H661.382H659.836H658.287H656.736H655.182H653.627H652.069H650.509H648.946H647.382H645.815H644.245H642.673H641.099H639.522H637.943H636.361H634.776H633.19H631.6H630.008H628.413H626.816H625.215H623.612H622.007H620.398H618.787H617.173H615.556H613.937H612.314H610.688H609.06H607.428H605.794H604.156H602.516H600.872H599.225H597.575H595.922H594.266H592.606H590.944H589.278H587.608H585.936H584.26H582.581H580.898H579.212H577.523H575.83H574.133H572.433H570.73H569.023H567.312H565.598H563.88H562.158H560.433H558.704H556.971H555.235H553.495H551.75H550.003H548.251H546.495H544.735H542.972H541.204H539.433H537.657H535.877H534.094H532.306H530.514H528.718H526.917H525.113H523.304H521.491H519.674H517.852H516.026H514.196H512.362H510.523H508.679H506.831H504.979H503.122H501.26H499.394H497.524H495.648H493.768H491.884H489.995H488.101H486.202H484.299H482.39H480.477H478.559H476.637H474.709H472.776H470.839H468.896H466.949H464.996H463.039H461.076H459.108H457.135H455.157H453.174H451.186H449.192H447.193H445.189H443.18H441.165H439.145H437.119H435.088H433.052H431.01H428.963H426.91H424.852H422.788H420.718H418.643H416.563H414.476H412.384H410.286H408.183H406.074H403.959H401.838H399.711H397.578H395.44H393.295H391.145H388.989H386.827H384.658H382.484H380.303H378.117H375.924H373.725H371.52H369.309H367.092H364.868H362.638H360.402H358.16H355.911H353.655H351.394H349.126H346.851H344.57H342.283H339.989H337.688H335.381H333.067H330.747H328.419H326.086H323.745H321.398H319.044H316.683H314.316H311.941H309.56H307.172H304.777H302.375H299.966H297.55H295.127H292.697H290.26H287.815H285.364H282.906H280.44H277.967H275.487H274.001Z" stroke="url(#paint1_linear_2442_2545)" stroke-opacity="0.64" stroke-width="2" shape-rendering="crispEdges"/>
</g>
<g filter="url(#filter2_di_2442_2545)">
<path d="M1057 724C784.5 724 703.5 724 383 724C383 537.88 533.88 387 720 387C906.12 387 1057 537.88 1057 724Z" fill="#D9D9D9" fill-opacity="0.01" shape-rendering="crispEdges"/>
<path d="M384.252 722.75C384.926 537.895 534.987 388.25 720 388.25C905.013 388.25 1055.07 537.895 1055.75 722.75H1055.41H1053.82H1052.23H1050.65H1049.07H1047.5H1045.93H1044.37H1042.81H1041.25H1039.7H1038.15H1036.61H1035.07H1033.53H1032H1030.47H1028.95H1027.43H1025.92H1024.41H1022.9H1021.4H1019.9H1018.4H1016.91H1015.42H1013.94H1012.46H1010.99H1009.51H1008.05H1006.58H1005.12H1003.66H1002.21H1000.76H999.315H997.872H996.434H994.999H993.567H992.14H990.715H989.295H987.878H986.464H985.054H983.647H982.243H980.844H979.447H978.054H976.664H975.278H973.895H972.515H971.138H969.765H968.395H967.028H965.665H964.304H962.947H961.593H960.242H958.894H957.55H956.208H954.87H953.534H952.201H950.872H949.545H948.222H946.901H945.583H944.268H942.956H941.647H940.341H939.038H937.737H936.439H935.144H933.852H932.562H931.275H929.991H928.709H927.43H926.154H924.88H923.609H922.341H921.075H919.812H918.551H917.292H916.036H914.783H913.532H912.283H911.037H909.793H908.552H907.312H906.076H904.841H903.609H902.379H901.151H899.926H898.702H897.481H896.262H895.045H893.831H892.618H891.408H890.199H888.993H887.789H886.586H885.386H884.188H882.991H881.797H880.604H879.414H878.225H877.038H875.853H874.67H873.488H872.309H871.131H869.955H868.78H867.608H866.437H865.267H864.099H862.933H861.769H860.606H859.445H858.285H857.127H855.97H854.815H853.661H852.509H851.358H850.208H849.06H847.914H846.768H845.624H844.482H843.34H842.2H841.061H839.924H838.788H837.652H836.518H835.386H834.254H833.123H831.994H830.866H829.738H828.612H827.487H826.363H825.24H824.118H822.996H821.876H820.757H819.638H818.52H817.404H816.288H815.173H814.058H812.945H811.832H810.72H809.609H808.498H807.388H806.279H805.17H804.062H802.955H801.848H800.742H799.636H798.531H797.426H796.322H795.219H794.115H793.013H791.91H790.808H789.707H788.605H787.505H786.404H785.304H784.204H783.104H782.004H780.905H779.806H778.707H777.608H776.51H775.411H774.313H773.215H772.116H771.018H769.92H768.822H767.724H766.626H765.527H764.429H763.331H762.232H761.134H760.035H758.936H757.837H756.738H755.638H754.538H753.438H752.338H751.237H750.137H749.035H747.934H746.832H745.729H744.627H743.523H742.42H741.315H740.211H739.106H738H736.894H735.787H734.68H733.572H732.463H731.354H730.244H729.133H728.022H726.91H725.797H724.683H723.569H722.454H721.338H720.221H719.104H717.985H716.866H715.745H714.624H713.502H712.379H711.254H710.129H709.003H707.876H706.747H705.618H704.487H703.356H702.223H701.089H699.954H698.817H697.68H696.541H695.401H694.259H693.117H691.973H690.827H689.681H688.533H687.383H686.232H685.08H683.926H682.771H681.614H680.456H679.296H678.135H676.972H675.807H674.641H673.473H672.304H671.133H669.96H668.786H667.61H666.432H665.252H664.07H662.887H661.702H660.515H659.326H658.136H656.943H655.749H654.552H653.354H652.154H650.951H649.747H648.54H647.332H646.121H644.909H643.694H642.477H641.258H640.037H638.814H637.588H636.36H635.13H633.898H632.664H631.427H630.188H628.946H627.702H626.456H625.207H623.956H622.702H621.447H620.188H618.927H617.664H616.398H615.129H613.858H612.584H611.308H610.029H608.747H607.463H606.176H604.886H603.594H602.299H601.001H599.7H598.397H597.09H595.781H594.469H593.154H591.836H590.516H589.192H587.865H586.536H585.203H583.868H582.529H581.187H579.842H578.494H577.144H575.789H574.432H573.072H571.708H570.341H568.971H567.598H566.221H564.841H563.458H562.072H560.682H559.289H557.892H556.492H555.089H553.682H552.272H550.858H549.441H548.02H546.596H545.168H543.736H542.301H540.863H539.42H537.974H536.525H535.071H533.614H532.154H530.689H529.221H527.749H526.273H524.793H523.31H521.823H520.331H518.836H517.337H515.834H514.327H512.816H511.301H509.782H508.259H506.732H505.201H503.666H502.126H500.583H499.035H497.483H495.927H494.367H492.803H491.234H489.661H488.084H486.502H484.916H483.326H481.732H480.133H478.529H476.922H475.309H473.693H472.071H470.446H468.816H467.181H465.542H463.898H462.249H460.596H458.938H457.276H455.609H453.937H452.261H450.58H448.894H447.203H445.508H443.807H442.102H440.392H438.678H436.958H435.233H433.504H431.769H430.03H428.285H426.536H424.782H423.022H421.258H419.488H417.713H415.933H414.148H412.358H410.563H408.763H406.957H405.146H403.33H401.508H399.682H397.85H396.012H394.17H392.322H390.468H388.609H386.745H384.875H384.252Z" stroke="url(#paint2_linear_2442_2545)" stroke-width="2.5" shape-rendering="crispEdges"/>
</g>
</g>
</g>
<g opacity="0.64">
<g filter="url(#filter3_f_2442_2545)">
<ellipse cx="435" cy="638.5" rx="266" ry="138.5" fill="#694EEC"/>
</g>
<g filter="url(#filter4_f_2442_2545)">
<ellipse cx="1059.5" cy="509.5" rx="210.5" ry="109.5" fill="#4EB7EC"/>
</g>
<g filter="url(#filter5_f_2442_2545)">
<ellipse cx="1019.5" cy="369.5" rx="177.5" ry="92.5" fill="#4EA5EC"/>
</g>
<g filter="url(#filter6_f_2442_2545)">
<ellipse cx="1044.5" cy="657.5" rx="252.5" ry="131.5" fill="#4EA5EC" fill-opacity="0.42"/>
</g>
</g>
<defs>
<filter id="filter0_di_2442_2545" x="95" y="109" width="1250" height="689" filterUnits="userSpaceOnUse" color-interpolation-filters="sRGB">
<feFlood flood-opacity="0" result="BackgroundImageFix"/>
<feColorMatrix in="SourceAlpha" type="matrix" values="0 0 0 0 0 0 0 0 0 0 0 0 0 0 0 0 0 0 127 0" result="hardAlpha"/>
<feOffset dy="-12"/>
<feGaussianBlur stdDeviation="32"/>
<feComposite in2="hardAlpha" operator="out"/>
<feColorMatrix type="matrix" values="0 0 0 0 0.615686 0 0 0 0 0.643137 0 0 0 0 0.682353 0 0 0 0.12 0"/>
<feBlend mode="normal" in2="BackgroundImageFix" result="effect1_dropShadow_2442_2545"/>
<feBlend mode="normal" in="SourceGraphic" in2="effect1_dropShadow_2442_2545" result="shape"/>
<feColorMatrix in="SourceAlpha" type="matrix" values="0 0 0 0 0 0 0 0 0 0 0 0 0 0 0 0 0 0 127 0" result="hardAlpha"/>
<feOffset dy="24"/>
<feGaussianBlur stdDeviation="28"/>
<feComposite in2="hardAlpha" operator="arithmetic" k2="-1" k3="1"/>
<feColorMatrix type="matrix" values="0 0 0 0 1 0 0 0 0 1 0 0 0 0 1 0 0 0 0.25 0"/>
<feBlend mode="normal" in2="shape" result="effect2_innerShadow_2442_2545"/>
</filter>
<filter id="filter1_di_2442_2545" x="209" y="216" width="1022" height="575" filterUnits="userSpaceOnUse" color-interpolation-filters="sRGB">
<feFlood flood-opacity="0" result="BackgroundImageFix"/>
<feColorMatrix in="SourceAlpha" type="matrix" values="0 0 0 0 0 0 0 0 0 0 0 0 0 0 0 0 0 0 127 0" result="hardAlpha"/>
<feOffset dy="-12"/>
<feGaussianBlur stdDeviation="32"/>
<feComposite in2="hardAlpha" operator="out"/>
<feColorMatrix type="matrix" values="0 0 0 0 0.615686 0 0 0 0 0.643137 0 0 0 0 0.682353 0 0 0 0.12 0"/>
<feBlend mode="normal" in2="BackgroundImageFix" result="effect1_dropShadow_2442_2545"/>
<feBlend mode="normal" in="SourceGraphic" in2="effect1_dropShadow_2442_2545" result="shape"/>
<feColorMatrix in="SourceAlpha" type="matrix" values="0 0 0 0 0 0 0 0 0 0 0 0 0 0 0 0 0 0 127 0" result="hardAlpha"/>
<feOffset dy="24"/>
<feGaussianBlur stdDeviation="28"/>
<feComposite in2="hardAlpha" operator="arithmetic" k2="-1" k3="1"/>
<feColorMatrix type="matrix" values="0 0 0 0 1 0 0 0 0 1 0 0 0 0 1 0 0 0 0.25 0"/>
<feBlend mode="normal" in2="shape" result="effect2_innerShadow_2442_2545"/>
</filter>
<filter id="filter2_di_2442_2545" x="319" y="311" width="802" height="465" filterUnits="userSpaceOnUse" color-interpolation-filters="sRGB">
<feFlood flood-opacity="0" result="BackgroundImageFix"/>
<feColorMatrix in="SourceAlpha" type="matrix" values="0 0 0 0 0 0 0 0 0 0 0 0 0 0 0 0 0 0 127 0" result="hardAlpha"/>
<feOffset dy="-12"/>
<feGaussianBlur stdDeviation="32"/>
<feComposite in2="hardAlpha" operator="out"/>
<feColorMatrix type="matrix" values="0 0 0 0 0.615686 0 0 0 0 0.643137 0 0 0 0 0.682353 0 0 0 0.12 0"/>
<feBlend mode="normal" in2="BackgroundImageFix" result="effect1_dropShadow_2442_2545"/>
<feBlend mode="normal" in="SourceGraphic" in2="effect1_dropShadow_2442_2545" result="shape"/>
<feColorMatrix in="SourceAlpha" type="matrix" values="0 0 0 0 0 0 0 0 0 0 0 0 0 0 0 0 0 0 127 0" result="hardAlpha"/>
<feOffset dy="24"/>
<feGaussianBlur stdDeviation="28"/>
<feComposite in2="hardAlpha" operator="arithmetic" k2="-1" k3="1"/>
<feColorMatrix type="matrix" values="0 0 0 0 1 0 0 0 0 1 0 0 0 0 1 0 0 0 0.25 0"/>
<feBlend mode="normal" in2="shape" result="effect2_innerShadow_2442_2545"/>
</filter>
<filter id="filter3_f_2442_2545" x="-281" y="50" width="1432" height="1177" filterUnits="userSpaceOnUse" color-interpolation-filters="sRGB">
<feFlood flood-opacity="0" result="BackgroundImageFix"/>
<feBlend mode="normal" in="SourceGraphic" in2="BackgroundImageFix" result="shape"/>
<feGaussianBlur stdDeviation="225" result="effect1_foregroundBlur_2442_2545"/>
</filter>
<filter id="filter4_f_2442_2545" x="249" y="-200" width="1621" height="1419" filterUnits="userSpaceOnUse" color-interpolation-filters="sRGB">
<feFlood flood-opacity="0" result="BackgroundImageFix"/>
<feBlend mode="normal" in="SourceGraphic" in2="BackgroundImageFix" result="shape"/>
<feGaussianBlur stdDeviation="300" result="effect1_foregroundBlur_2442_2545"/>
</filter>
<filter id="filter5_f_2442_2545" x="422" y="-143" width="1195" height="1025" filterUnits="userSpaceOnUse" color-interpolation-filters="sRGB">
<feFlood flood-opacity="0" result="BackgroundImageFix"/>
<feBlend mode="normal" in="SourceGraphic" in2="BackgroundImageFix" result="shape"/>
<feGaussianBlur stdDeviation="210" result="effect1_foregroundBlur_2442_2545"/>
</filter>
<filter id="filter6_f_2442_2545" x="592" y="326" width="905" height="663" filterUnits="userSpaceOnUse" color-interpolation-filters="sRGB">
<feFlood flood-opacity="0" result="BackgroundImageFix"/>
<feBlend mode="normal" in="SourceGraphic" in2="BackgroundImageFix" result="shape"/>
<feGaussianBlur stdDeviation="100" result="effect1_foregroundBlur_2442_2545"/>
</filter>
<linearGradient id="paint0_linear_2442_2545" x1="218.096" y1="534.585" x2="1255.2" y2="553.728" gradientUnits="userSpaceOnUse">
<stop stop-color="white"/>
<stop offset="0.125" stop-color="white" stop-opacity="0.56"/>
<stop offset="1" stop-color="white"/>
</linearGradient>
<linearGradient id="paint1_linear_2442_2545" x1="320.088" y1="570.546" x2="1146.44" y2="585.8" gradientUnits="userSpaceOnUse">
<stop stop-color="white"/>
<stop offset="0.458703" stop-color="white" stop-opacity="0.24"/>
<stop offset="1" stop-color="white"/>
</linearGradient>
<linearGradient id="paint2_linear_2442_2545" x1="418.5" y1="597" x2="1041.5" y2="608.5" gradientUnits="userSpaceOnUse">
<stop stop-color="white"/>
<stop offset="0.72" stop-color="white" stop-opacity="0.56"/>
<stop offset="1" stop-color="white"/>
</linearGradient>
<clipPath id="clip0_2442_2545">
<rect width="1180" height="518" fill="white" transform="translate(130 153)"/>
</clipPath>
</defs>
</svg>
