<svg xmlns="http://www.w3.org/2000/svg" width="249" height="102" viewBox="0 0 249 102" fill="none">
    <path d="M45.2812 46.4901L50.489 41V56.8742L45.2812 61.6428V46.4901Z" fill="#475173"/>
    <path d="M37.5951 49.251L40.1049 51.3215L42.8028 48.9373V56.8744L37.5951 61.6429V49.251Z" fill="#475173"/>
    <path d="M35.1482 46.4901L29.9091 41V61.7055L35.1482 57.2507V46.4901Z" fill="#475173"/>
    <path d="M214.816 58.7881H218.141V44.4197H214.816V58.7881ZM192.228 51.3843V47.2432H195.522C197.153 47.2432 198.126 47.9333 198.126 49.2823V49.3137C198.126 50.5372 197.185 51.3529 195.585 51.3529H192.228V51.3843ZM188.902 58.7881H192.228V54.1764H194.832L198.063 58.7881H201.953L198.251 53.643C200.165 52.9529 201.483 51.5097 201.483 49.1882V49.1568C201.483 47.8078 201.043 46.6785 200.196 45.8628C199.192 44.9216 197.718 44.3883 195.804 44.3883H188.902V58.7881ZM166.346 52.7646L168.354 48.0902L170.362 52.7646H166.346ZM160.385 58.7881H163.773L165.154 55.5567H171.554L172.934 58.7881H176.416L169.954 44.2942H166.879L160.385 58.7881ZM143.382 58.9763C146.644 58.9763 148.935 57.3763 148.935 54.5215V54.4901C148.935 51.9803 147.209 50.9451 144.135 50.1608C141.531 49.5333 140.872 49.2196 140.872 48.2784V48.2471C140.872 47.5569 141.531 46.9922 142.817 46.9922C144.103 46.9922 145.421 47.5255 146.738 48.4039L148.464 46.0196C146.927 44.8589 145.044 44.2001 142.848 44.2001C139.774 44.2001 137.546 45.9255 137.546 48.5294V48.5608C137.546 51.4156 139.523 52.2313 142.566 52.9529C145.076 53.5803 145.609 53.9881 145.609 54.7724V54.8038C145.609 55.6509 144.793 56.1528 143.444 56.1528C141.719 56.1528 140.307 55.4626 138.927 54.396L136.95 56.6234C138.801 58.2234 141.091 58.9763 143.382 58.9763ZM119.602 58.9763C122.864 58.9763 125.155 57.3763 125.155 54.5215V54.4901C125.155 51.9803 123.429 50.9451 120.355 50.1608C117.751 49.5333 117.092 49.2196 117.092 48.2784V48.2471C117.092 47.5569 117.751 46.9922 119.037 46.9922C120.323 46.9922 121.641 47.5255 122.958 48.4039L124.684 46.0196C123.147 44.8589 121.264 44.2001 119.068 44.2001C115.994 44.2001 113.766 45.9255 113.766 48.5294V48.5608C113.766 51.4156 115.743 52.2313 118.786 52.9529C121.296 53.5803 121.829 53.9881 121.829 54.7724V54.8038C121.829 55.6509 121.013 56.1528 119.664 56.1528C117.939 56.1528 116.527 55.4626 115.147 54.396L113.17 56.6234C115.021 58.2234 117.312 58.9763 119.602 58.9763ZM89.61 58.7881H101.124V55.9646H92.9355V52.9529H100.057V50.1294H92.9355V47.2118H101.029V44.3883H89.6414V58.7881H89.61ZM60.6851 58.7881H63.9477V49.4706L68.1516 55.5567H68.2457L72.5123 49.4078V58.7881H75.8064V44.4197H72.23L68.2457 50.4745L64.2615 44.3883H60.6851V58.7881Z" fill="#475173"/>
</svg>