<svg xmlns="http://www.w3.org/2000/svg" width="19" height="16" viewBox="0 0 19 16" fill="none">
    <path d="M18.4067 12.3264L15.4353 15.2962C15.3705 15.3612 15.2924 15.4125 15.2058 15.4469C15.1189 15.4828 15.0251 15.5009 14.9305 15.5H0.844803C0.777884 15.5 0.71233 15.4819 0.655804 15.4476C0.599794 15.4137 0.55545 15.3648 0.528304 15.307C0.501704 15.2496 0.493609 15.1859 0.505054 15.1241C0.516407 15.0619 0.546972 15.0044 0.592804 14.9591L3.56655 11.9899C3.63105 11.9251 3.70895 11.8738 3.79529 11.8393C3.88185 11.8032 3.97537 11.7849 4.06979 11.7855H18.1548C18.2217 11.7856 18.2873 11.8041 18.3438 11.8386C18.3998 11.8725 18.4441 11.9214 18.4713 11.9792C18.4979 12.0366 18.5059 12.1003 18.4945 12.1621C18.4831 12.2243 18.4526 12.281 18.4067 12.3264ZM15.4353 6.34792C15.3705 6.283 15.2924 6.2317 15.2058 6.19728C15.119 6.16108 15.0252 6.14275 14.9305 6.14348H0.844803C0.777884 6.14342 0.71233 6.16158 0.655804 6.19584C0.599682 6.22991 0.555327 6.27907 0.528304 6.33716C0.501853 6.39435 0.493761 6.45777 0.505054 6.51937C0.516407 6.58152 0.546972 6.63899 0.592804 6.68436L3.56655 9.65422C3.63105 9.71906 3.70895 9.77036 3.79529 9.80487C3.88191 9.84072 3.97542 9.8588 4.06979 9.85795H18.1548C18.2217 9.85801 18.2872 9.83984 18.3438 9.80558C18.3998 9.77171 18.4441 9.72281 18.4713 9.66498C18.4979 9.60758 18.5059 9.54389 18.4945 9.48206C18.4831 9.41991 18.4526 9.36244 18.4067 9.31706L15.4353 6.34792ZM0.844803 4.2145H14.9313C15.0259 4.21523 15.1197 4.1969 15.2065 4.1607C15.2931 4.12628 15.3713 4.07498 15.436 4.01006L18.4075 1.0402C18.4533 0.994826 18.4839 0.937356 18.4953 0.875207C18.5063 0.813538 18.498 0.750116 18.4713 0.692998C18.4441 0.635174 18.3998 0.586274 18.3438 0.552396C18.2872 0.518135 18.2217 0.499971 18.1548 0.500029H4.06979C3.97542 0.499174 3.88191 0.517258 3.79529 0.553113C3.70895 0.58762 3.63105 0.63892 3.56655 0.703758L0.593554 3.67433C0.547722 3.71971 0.517157 3.77718 0.505804 3.83933C0.494276 3.90085 0.502107 3.96427 0.528304 4.02153C0.55545 4.07936 0.599794 4.12826 0.655804 4.16214C0.71225 4.19665 0.77781 4.21435 0.844803 4.2145Z" fill="#475173"/>
</svg>