<svg xmlns="http://www.w3.org/2000/svg" width="75" height="75" viewBox="0 0 75 75" fill="none">
    <rect y="15.8433" width="61.2139" height="61.2139" rx="6.59541" transform="rotate(-15 0 15.8433)" fill="#FCFCFD" fill-opacity="0.04"/>
    <rect x="0.673141" y="16.2319" width="60.1147" height="60.1147" rx="6.04579" transform="rotate(-15 0.673141 16.2319)" stroke="#FCFCFD" stroke-opacity="0.04" stroke-width="1.09923"/>
    <path d="M26.9855 47.9877C27.1512 47.7009 27.4241 47.4917 27.7441 47.4059L57.2662 39.4955C57.804 39.3514 58.2474 39.9295 57.9689 40.4116L53.6972 47.8035C53.5315 48.0904 53.2586 48.2997 52.9386 48.3854L23.4165 56.2959C22.8787 56.44 22.4353 55.8617 22.7138 55.3797L26.9855 47.9877Z" fill="#FCFCFD" fill-opacity="0.08"/>
    <path d="M21.1502 26.2116C21.3159 25.9248 21.5888 25.7155 21.9088 25.6298L51.4309 17.7194C51.9687 17.5753 52.4121 18.1535 52.1335 18.6356L47.8619 26.0275C47.6962 26.3142 47.4233 26.5236 47.1033 26.6093L17.5812 34.5197C17.0434 34.6638 16.6 34.0857 16.8785 33.6036L21.1502 26.2116Z" fill="#FCFCFD" fill-opacity="0.08"/>
    <path d="M49.0177 30.3401C48.7308 30.1746 48.3898 30.1298 48.0698 30.2155L18.5477 38.1259C18.0099 38.27 17.915 38.9925 18.3972 39.2706L25.7926 43.5365C26.0795 43.702 26.4205 43.7468 26.7405 43.6611L56.2626 35.7506C56.8004 35.6065 56.8953 34.884 56.413 34.6058L49.0177 30.3401Z" fill="#FCFCFD" fill-opacity="0.08"/>
</svg>