<svg width="249" height="102" viewBox="0 0 249 102" fill="none" xmlns="http://www.w3.org/2000/svg">
<path d="M116.764 57.6639C114.926 57.6639 113.087 57.6695 111.25 57.6627C109.271 57.6548 107.936 56.3942 107.93 54.5101C107.921 51.1358 107.921 47.7614 107.93 44.387C107.935 42.6025 109.35 41.3046 111.212 41.3091C114.907 41.3193 118.603 41.3125 122.299 41.3136C124.399 41.3136 125.713 42.555 125.714 44.5443C125.718 47.8247 125.719 51.1041 125.714 54.3845C125.712 56.4022 124.389 57.6605 122.277 57.6627C120.439 57.665 118.6 57.6627 116.763 57.6627L116.764 57.6639ZM116.823 54.492V54.4943C117.949 54.4943 119.073 54.4977 120.199 54.4943C121.555 54.4898 122.375 53.7271 122.384 52.4246C122.399 50.3719 122.395 48.3193 122.384 46.2666C122.379 45.0614 121.605 44.241 120.349 44.2195C118 44.1799 115.65 44.1844 113.301 44.2184C112.121 44.2354 111.289 45.0218 111.276 46.0968C111.25 48.2627 111.249 50.4285 111.276 52.5944C111.291 53.7282 112.138 54.4807 113.327 54.4909C114.492 54.5011 115.657 54.4932 116.822 54.4932L116.823 54.492Z" fill="#475173"/>
<path d="M213.994 50.5595C213.994 52.6337 213.995 54.7079 213.993 56.7809C213.993 57.6025 213.909 57.6749 213.031 57.676C212.497 57.676 211.962 57.6545 211.43 57.6828C210.853 57.7134 210.657 57.4554 210.662 56.9394C210.674 55.3744 210.669 53.8094 210.666 52.2444C210.666 51.4693 210.519 51.3324 209.691 51.3312C206.647 51.329 203.603 51.329 200.559 51.3312C199.782 51.3312 199.63 51.4795 199.629 52.2275C199.627 53.7924 199.616 55.3574 199.636 56.9224C199.643 57.4475 199.424 57.7021 198.879 57.7021C198.247 57.7021 197.615 57.7043 196.982 57.6975C196.522 57.693 196.306 57.4712 196.306 57.0242C196.311 52.7446 196.29 48.4638 196.323 44.1842C196.335 42.6305 197.704 41.3394 199.337 41.3269C203.21 41.2964 207.085 41.2964 210.959 41.3247C212.645 41.3371 213.98 42.669 213.992 44.2804C214.008 46.3726 213.995 48.4661 213.995 50.5584L213.994 50.5595ZM205.117 48.9504C206.716 48.9504 208.314 48.9459 209.913 48.9527C210.429 48.9549 210.676 48.7422 210.668 48.2398C210.656 47.4488 210.677 46.6578 210.663 45.868C210.642 44.7273 209.832 43.9601 208.64 43.9567C206.311 43.9488 203.982 43.9488 201.653 43.9567C200.455 43.9601 199.65 44.7228 199.63 45.8668C199.617 46.6193 199.625 47.373 199.629 48.1266C199.633 48.818 199.761 48.9459 200.499 48.9493C202.038 48.956 203.578 48.9515 205.117 48.9515V48.9504Z" fill="#475173"/>
<path d="M168.463 50.5291C168.463 52.6214 168.463 54.7137 168.463 56.806C168.463 57.5822 168.339 57.7033 167.551 57.7056C167.017 57.7067 166.484 57.6977 165.951 57.7045C165.411 57.7101 165.172 57.4962 165.182 56.952C165.208 55.4062 165.196 53.8605 165.19 52.3147C165.187 51.44 165.094 51.3563 164.157 51.3563C161.153 51.354 158.149 51.354 155.146 51.3563C154.429 51.3563 154.286 51.4943 154.284 52.188C154.28 53.7145 154.287 55.2421 154.281 56.7686C154.277 57.5766 154.156 57.6909 153.333 57.6965C152.799 57.7011 152.265 57.692 151.733 57.7022C151.219 57.7124 150.971 57.5019 150.972 56.9938C150.98 52.7334 150.967 48.473 150.988 44.2137C150.995 42.642 152.331 41.3587 154.021 41.3282C156.254 41.2863 158.487 41.3146 160.72 41.3135C162.202 41.3135 163.685 41.309 165.166 41.3135C167.124 41.3203 168.445 42.5514 168.463 44.4197C168.482 46.4554 168.468 48.4911 168.467 50.5268L168.463 50.5291ZM159.687 48.9505V48.946C161.267 48.946 162.847 48.9381 164.427 48.9505C164.96 48.9551 165.179 48.731 165.172 48.2354C165.162 47.4444 165.181 46.6523 165.172 45.8613C165.159 44.7252 164.348 43.9591 163.148 43.9557C160.858 43.9501 158.566 43.9478 156.275 43.9535C155.074 43.9569 154.282 44.7139 154.267 45.867C154.256 46.6387 154.261 47.4116 154.267 48.1845C154.271 48.8283 154.388 48.9437 155.066 48.9471C156.607 48.9539 158.147 48.9494 159.688 48.9494L159.687 48.9505Z" fill="#475173"/>
<path d="M92.5132 57.6747C90.6555 57.6747 88.7965 57.6894 86.9388 57.6599C86.673 57.6554 86.2638 57.4981 86.1878 57.3125C86.1143 57.1326 86.3231 56.7615 86.5176 56.5849C87.1749 55.9875 87.8594 55.4126 88.5794 54.8864C88.8653 54.6771 89.2722 54.5141 89.627 54.5096C92.3151 54.4779 95.0033 54.4926 97.6927 54.487C98.4329 54.4859 98.9656 54.1577 99.2966 53.5195C99.6228 52.8915 99.5149 52.303 99.1044 51.7667C98.7295 51.2778 98.1862 51.0843 97.5539 51.0854C95.2216 51.09 92.8881 51.0922 90.5558 51.0854C87.8072 51.0764 85.7169 49.1889 85.4428 46.4799C85.2068 44.1534 87.0384 41.8812 89.5534 41.4002C89.9176 41.3301 90.2996 41.3199 90.6733 41.3188C94.1136 41.3131 97.5527 41.3074 100.993 41.3278C101.286 41.3301 101.7 41.4432 101.844 41.6435C102.083 41.9796 101.746 42.2568 101.477 42.4911C100.865 43.0252 100.282 43.5955 99.6359 44.0889C99.3559 44.3027 98.949 44.4759 98.5978 44.4804C95.9298 44.5132 93.2606 44.4996 90.5914 44.4985C89.8512 44.4985 89.296 44.7995 88.9531 45.4241C88.6198 46.0318 88.6886 46.6315 89.0943 47.1826C89.4739 47.6986 90.0184 47.9091 90.6792 47.9068C92.9925 47.8989 95.3046 47.9023 97.6179 47.9046C100.504 47.9068 102.806 50.0761 102.809 52.7941C102.813 55.4862 100.537 57.6543 97.6737 57.6724C95.9535 57.6837 94.2334 57.6747 92.5144 57.6747H92.5132Z" fill="#475173"/>
<path d="M191.131 49.5152C191.131 51.9481 191.131 54.381 191.131 56.8128C191.131 57.5744 190.988 57.6094 190.203 57.7192C188.504 57.958 187.397 57.3311 186.322 56.0513C183.718 52.9485 180.927 49.9882 178.21 46.9714C178.094 46.8424 177.993 46.684 177.846 46.6048C177.69 46.5199 177.449 46.4339 177.315 46.4939C177.155 46.5652 177.03 46.7757 176.962 46.9511C176.904 47.1004 176.944 47.286 176.944 47.4558C176.944 50.5484 176.946 53.641 176.949 56.7336C176.949 57.5879 176.821 57.709 175.912 57.7056C175.358 57.7034 174.805 57.7034 174.251 57.6988C173.844 57.6954 173.628 57.5019 173.624 57.1082C173.621 56.9192 173.618 56.7313 173.618 56.5424C173.618 51.7716 173.619 46.9997 173.622 42.229C173.622 41.3791 173.735 41.3724 174.602 41.2694C176.271 41.0702 177.381 41.6428 178.438 42.9294C181.068 46.1329 183.886 49.195 186.629 52.3136C186.856 52.5705 187.087 52.9598 187.476 52.7142C187.69 52.5784 187.824 52.1892 187.826 51.9119C187.852 48.6688 187.845 45.4246 187.849 42.1814C187.849 41.3995 187.965 41.2909 188.767 41.2898C189.241 41.2898 189.716 41.2898 190.19 41.2909C191.023 41.2909 191.136 41.3995 191.136 42.2165C191.137 44.6494 191.136 47.0823 191.136 49.5141H191.132L191.131 49.5152Z" fill="#475173"/>
<path d="M131.022 49.438C131.022 47.0243 131.022 44.6106 131.022 42.197C131.022 41.4117 131.154 41.2872 131.995 41.2883C132.49 41.2883 132.983 41.2781 133.478 41.2827C134.129 41.2894 134.277 41.4332 134.277 42.0567C134.277 46.0353 134.277 50.014 134.275 53.9926C134.275 54.8537 134.357 54.9386 135.25 54.9386C138.67 54.9386 142.091 54.9386 145.509 54.9386C145.706 54.9386 145.909 54.9228 146.1 54.9578C146.59 55.0472 146.8 55.4886 146.483 55.8473C145.963 56.4368 145.399 56.9958 144.82 57.5345C144.689 57.6567 144.42 57.6895 144.215 57.6895C140.083 57.6997 135.953 57.7019 131.821 57.6997C131.184 57.6997 131.022 57.5141 131.022 56.8464C131.021 54.3762 131.022 51.906 131.022 49.4357V49.438Z" fill="#475173"/>
<path fill-rule="evenodd" clip-rule="evenodd" d="M41.6914 46.1675H67.8838C68.2116 46.1675 68.512 46.3019 68.7578 46.5438L72.9093 50.7363C73.674 51.5156 73.1278 52.8325 72.0353 52.8325H45.8429C45.5151 52.8325 45.2147 52.6981 44.9689 52.4563L40.8174 48.2638C40.0527 47.4844 40.5989 46.1675 41.6914 46.1675ZM40.8174 40.6044L44.9689 36.4119C45.1874 36.17 45.5151 36.0356 45.8429 36.0356H72.008C73.1005 36.0356 73.6467 37.3525 72.882 38.1319L68.7578 42.3244C68.5393 42.5663 68.2116 42.7006 67.8838 42.7006H41.6914C40.5989 42.7006 40.0527 41.3838 40.8174 40.6044ZM72.882 58.3688L68.7305 62.5613C68.4847 62.8031 68.1843 62.9375 67.8565 62.9375H41.6914C40.5989 62.9375 40.0527 61.6207 40.8174 60.8413L44.9689 56.6488C45.1874 56.4069 45.5151 56.2725 45.8429 56.2725H72.008C73.1005 56.2725 73.6467 57.5894 72.882 58.3688Z" fill="#475173"/>
</svg>
