<svg width="85" height="85" viewBox="0 0 85 85" fill="none" xmlns="http://www.w3.org/2000/svg">
<rect width="85" height="85" rx="12" fill="#FCFCFD" fill-opacity="0.08"/>
<rect x="1" y="1" width="83" height="83" rx="11" stroke="#FCFCFD" stroke-opacity="0.08" stroke-width="2"/>
<path d="M66 41.0012C66 40.1002 65.4764 39.2734 64.6425 38.8636C62.5083 37.814 60.2227 36.8483 57.6616 35.9089C53.4279 34.3416 50.3432 31.3174 48.74 27.1741C47.7796 24.6603 46.7919 22.422 45.7223 20.3324C45.3029 19.5176 44.4393 19 43.4988 19C42.5582 19 41.6896 19.5176 41.2752 20.3348C40.2081 22.4172 39.2229 24.6555 38.2624 27.1645C36.6593 31.315 33.5721 34.3393 29.3458 35.9041C26.7699 36.8507 24.4818 37.8164 22.355 38.8636C21.5236 39.271 21 40.0978 21 40.9988C21 41.8998 21.5236 42.7266 22.3575 43.1364C24.4967 44.186 26.7823 45.1541 29.3384 46.0887C33.5721 47.656 36.6568 50.6802 38.26 54.8259C39.2253 57.3493 40.2106 59.5828 41.2752 61.6652C41.6946 62.4824 42.5557 63 43.4988 63C44.4418 63 45.3054 62.4824 45.7223 61.6652C46.7919 59.5828 47.7771 57.3445 48.7351 54.8331C50.3407 50.6826 53.4304 47.6583 57.6517 46.0935C60.2177 45.1541 62.5033 44.1884 64.6425 43.1388C65.4764 42.729 66 41.9046 66 41.0012Z" fill="#11A37F"/>
<g opacity="0.3">
<path d="M56.8967 28.0673C57.314 28.2712 57.7247 28.439 58.1289 28.5864C58.4676 28.7118 58.7049 28.9439 58.8325 29.2685C58.9831 29.6653 59.1549 30.0605 59.3627 30.465C59.636 31.0014 60.2055 31.3432 60.8289 31.3432H60.8322C61.454 31.3432 62.0235 31.0045 62.2984 30.4697C62.5062 30.0667 62.6764 29.67 62.8285 29.2764C62.9595 28.9439 63.1967 28.7118 63.5289 28.5895C63.9396 28.4405 64.3487 28.2727 64.766 28.0689C65.3158 27.8023 65.6611 27.2597 65.6611 26.67C65.6611 26.0804 65.3142 25.5394 64.7644 25.2728C64.3487 25.0721 63.9396 24.9043 63.5338 24.7553C63.1967 24.6314 62.9595 24.3993 62.8302 24.07C62.6764 23.6732 62.5062 23.2765 62.2967 22.8719C62.0218 22.3387 61.4524 22 60.8305 22H60.8273C60.2038 22 59.636 22.3403 59.3611 22.8766C59.1549 23.2796 58.9831 23.6764 58.8342 24.0653C58.7033 24.3977 58.466 24.6298 58.1338 24.7522C57.7215 24.9027 57.3124 25.0689 56.8951 25.2728C56.3453 25.5394 56 26.0804 56 26.67C56 27.2597 56.3453 27.8007 56.8951 28.0673H56.8967Z" fill="white"/>
<path d="M56.8967 28.0673C57.314 28.2712 57.7247 28.439 58.1289 28.5864C58.4676 28.7118 58.7049 28.9439 58.8325 29.2685C58.9831 29.6653 59.1549 30.0605 59.3627 30.465C59.636 31.0014 60.2055 31.3432 60.8289 31.3432H60.8322C61.454 31.3432 62.0235 31.0045 62.2984 30.4697C62.5062 30.0667 62.6764 29.67 62.8285 29.2764C62.9595 28.9439 63.1967 28.7118 63.5289 28.5895C63.9396 28.4405 64.3487 28.2727 64.766 28.0689C65.3158 27.8023 65.6611 27.2597 65.6611 26.67C65.6611 26.0804 65.3142 25.5394 64.7644 25.2728C64.3487 25.0721 63.9396 24.9043 63.5338 24.7553C63.1967 24.6314 62.9595 24.3993 62.8302 24.07C62.6764 23.6732 62.5062 23.2765 62.2967 22.8719C62.0218 22.3387 61.4524 22 60.8305 22H60.8273C60.2038 22 59.636 22.3403 59.3611 22.8766C59.1549 23.2796 58.9831 23.6764 58.8342 24.0653C58.7033 24.3977 58.466 24.6298 58.1338 24.7522C57.7215 24.9027 57.3124 25.0689 56.8951 25.2728C56.3453 25.5394 56 26.0804 56 26.67C56 27.2597 56.3453 27.8007 56.8951 28.0673H56.8967Z" fill="url(#paint0_linear_2134_805)"/>
<path d="M56.8967 28.0673C57.314 28.2712 57.7247 28.439 58.1289 28.5864C58.4676 28.7118 58.7049 28.9439 58.8325 29.2685C58.9831 29.6653 59.1549 30.0605 59.3627 30.465C59.636 31.0014 60.2055 31.3432 60.8289 31.3432H60.8322C61.454 31.3432 62.0235 31.0045 62.2984 30.4697C62.5062 30.0667 62.6764 29.67 62.8285 29.2764C62.9595 28.9439 63.1967 28.7118 63.5289 28.5895C63.9396 28.4405 64.3487 28.2727 64.766 28.0689C65.3158 27.8023 65.6611 27.2597 65.6611 26.67C65.6611 26.0804 65.3142 25.5394 64.7644 25.2728C64.3487 25.0721 63.9396 24.9043 63.5338 24.7553C63.1967 24.6314 62.9595 24.3993 62.8302 24.07C62.6764 23.6732 62.5062 23.2765 62.2967 22.8719C62.0218 22.3387 61.4524 22 60.8305 22H60.8273C60.2038 22 59.636 22.3403 59.3611 22.8766C59.1549 23.2796 58.9831 23.6764 58.8342 24.0653C58.7033 24.3977 58.466 24.6298 58.1338 24.7522C57.7215 24.9027 57.3124 25.0689 56.8951 25.2728C56.3453 25.5394 56 26.0804 56 26.67C56 27.2597 56.3453 27.8007 56.8951 28.0673H56.8967Z" fill="url(#paint1_linear_2134_805)"/>
</g>
<g opacity="0.3">
<path d="M64.5545 57.1463C64.0358 56.8938 63.5236 56.6837 63.0196 56.5017C62.4649 56.2979 62.0607 55.9027 61.8529 55.3664C61.6615 54.8708 61.4471 54.3753 61.1885 53.8735C60.912 53.3387 60.3425 53 59.7224 53C59.0989 53 58.5295 53.3403 58.2562 53.8766C57.9993 54.3784 57.7849 54.8724 57.5984 55.3585C57.3856 55.9027 56.9815 56.2979 56.4349 56.4986C55.9244 56.6837 55.4105 56.8938 54.8935 57.1478C54.3453 57.416 54 57.9555 54 58.5451C54 59.1347 54.3453 59.6742 54.8935 59.9423C55.4105 60.1948 55.9211 60.4034 56.43 60.59C56.9815 60.7923 57.3856 61.1859 57.5951 61.7238C57.7849 62.2178 57.9993 62.7133 58.2578 63.2136C58.5327 63.7483 59.1005 64.087 59.724 64.0886C60.3458 64.0886 60.9136 63.7515 61.1902 63.2167C61.4504 62.7149 61.6647 62.2193 61.8545 61.7285C62.064 61.1859 62.4682 60.7923 63.0196 60.59C63.5302 60.4034 64.0391 60.1964 64.5562 59.9439C65.106 59.6757 65.4513 59.1347 65.4513 58.5451C65.4513 57.9555 65.106 57.4144 64.5562 57.1463H64.5545Z" fill="url(#paint2_linear_2134_805)"/>
<path d="M64.5545 57.1463C64.0358 56.8938 63.5236 56.6837 63.0196 56.5017C62.4649 56.2979 62.0607 55.9027 61.8529 55.3664C61.6615 54.8708 61.4471 54.3753 61.1885 53.8735C60.912 53.3387 60.3425 53 59.7224 53C59.0989 53 58.5295 53.3403 58.2562 53.8766C57.9993 54.3784 57.7849 54.8724 57.5984 55.3585C57.3856 55.9027 56.9815 56.2979 56.4349 56.4986C55.9244 56.6837 55.4105 56.8938 54.8935 57.1478C54.3453 57.416 54 57.9555 54 58.5451C54 59.1347 54.3453 59.6742 54.8935 59.9423C55.4105 60.1948 55.9211 60.4034 56.43 60.59C56.9815 60.7923 57.3856 61.1859 57.5951 61.7238C57.7849 62.2178 57.9993 62.7133 58.2578 63.2136C58.5327 63.7483 59.1005 64.087 59.724 64.0886C60.3458 64.0886 60.9136 63.7515 61.1902 63.2167C61.4504 62.7149 61.6647 62.2193 61.8545 61.7285C62.064 61.1859 62.4682 60.7923 63.0196 60.59C63.5302 60.4034 64.0391 60.1964 64.5562 59.9439C65.106 59.6757 65.4513 59.1347 65.4513 58.5451C65.4513 57.9555 65.106 57.4144 64.5562 57.1463H64.5545Z" fill="url(#paint3_linear_2134_805)"/>
</g>
<g opacity="0.3">
<path d="M28.8423 18.9848C29.1073 19.1187 29.3682 19.2289 29.6249 19.3257C29.8401 19.4081 29.9908 19.5606 30.0718 19.7738C30.1675 20.0343 30.2766 20.2939 30.4086 20.5596C30.5822 20.9118 30.9439 21.1364 31.3398 21.1364H31.3419C31.7369 21.1364 32.0986 20.9139 32.2732 20.5627C32.4052 20.298 32.5133 20.0374 32.6099 19.7789C32.6931 19.5606 32.8438 19.4081 33.0548 19.3278C33.3157 19.23 33.5755 19.1197 33.8405 18.9859C34.1898 18.8108 34.4091 18.4544 34.4091 18.0672C34.4091 17.6799 34.1887 17.3246 33.8395 17.1495C33.5755 17.0176 33.3157 16.9074 33.0579 16.8096C32.8438 16.7282 32.6931 16.5758 32.611 16.3595C32.5133 16.0989 32.4052 15.8384 32.2722 15.5726C32.0975 15.2225 31.7358 15 31.3409 15H31.3388C30.9428 15 30.5822 15.2235 30.4075 15.5757C30.2766 15.8404 30.1675 16.101 30.0729 16.3564C29.9897 16.5748 29.839 16.7272 29.628 16.8075C29.3661 16.9064 29.1063 17.0156 28.8412 17.1495C28.492 17.3246 28.2727 17.6799 28.2727 18.0672C28.2727 18.4544 28.492 18.8097 28.8412 18.9848H28.8423Z" fill="white"/>
<path d="M28.8423 18.9848C29.1073 19.1187 29.3682 19.2289 29.6249 19.3257C29.8401 19.4081 29.9908 19.5606 30.0718 19.7738C30.1675 20.0343 30.2766 20.2939 30.4086 20.5596C30.5822 20.9118 30.9439 21.1364 31.3398 21.1364H31.3419C31.7369 21.1364 32.0986 20.9139 32.2732 20.5627C32.4052 20.298 32.5133 20.0374 32.6099 19.7789C32.6931 19.5606 32.8438 19.4081 33.0548 19.3278C33.3157 19.23 33.5755 19.1197 33.8405 18.9859C34.1898 18.8108 34.4091 18.4544 34.4091 18.0672C34.4091 17.6799 34.1887 17.3246 33.8395 17.1495C33.5755 17.0176 33.3157 16.9074 33.0579 16.8096C32.8438 16.7282 32.6931 16.5758 32.611 16.3595C32.5133 16.0989 32.4052 15.8384 32.2722 15.5726C32.0975 15.2225 31.7358 15 31.3409 15H31.3388C30.9428 15 30.5822 15.2235 30.4075 15.5757C30.2766 15.8404 30.1675 16.101 30.0729 16.3564C29.9897 16.5748 29.839 16.7272 29.628 16.8075C29.3661 16.9064 29.1063 17.0156 28.8412 17.1495C28.492 17.3246 28.2727 17.6799 28.2727 18.0672C28.2727 18.4544 28.492 18.8097 28.8412 18.9848H28.8423Z" fill="url(#paint4_linear_2134_805)"/>
<path d="M28.8423 18.9848C29.1073 19.1187 29.3682 19.2289 29.6249 19.3257C29.8401 19.4081 29.9908 19.5606 30.0718 19.7738C30.1675 20.0343 30.2766 20.2939 30.4086 20.5596C30.5822 20.9118 30.9439 21.1364 31.3398 21.1364H31.3419C31.7369 21.1364 32.0986 20.9139 32.2732 20.5627C32.4052 20.298 32.5133 20.0374 32.6099 19.7789C32.6931 19.5606 32.8438 19.4081 33.0548 19.3278C33.3157 19.23 33.5755 19.1197 33.8405 18.9859C34.1898 18.8108 34.4091 18.4544 34.4091 18.0672C34.4091 17.6799 34.1887 17.3246 33.8395 17.1495C33.5755 17.0176 33.3157 16.9074 33.0579 16.8096C32.8438 16.7282 32.6931 16.5758 32.611 16.3595C32.5133 16.0989 32.4052 15.8384 32.2722 15.5726C32.0975 15.2225 31.7358 15 31.3409 15H31.3388C30.9428 15 30.5822 15.2235 30.4075 15.5757C30.2766 15.8404 30.1675 16.101 30.0729 16.3564C29.9897 16.5748 29.839 16.7272 29.628 16.8075C29.3661 16.9064 29.1063 17.0156 28.8412 17.1495C28.492 17.3246 28.2727 17.6799 28.2727 18.0672C28.2727 18.4544 28.492 18.8097 28.8412 18.9848H28.8423Z" fill="url(#paint5_linear_2134_805)"/>
</g>
<g opacity="0.3">
<path d="M24.0471 66.4183C24.3652 66.5789 24.6782 66.7112 24.9863 66.8274C25.2445 66.9262 25.4253 67.1091 25.5226 67.365C25.6373 67.6777 25.7683 67.9891 25.9267 68.308C26.135 68.7307 26.569 69.0001 27.0442 69.0001H27.0467C27.5207 69.0001 27.9547 68.7332 28.1642 68.3117C28.3226 67.9941 28.4523 67.6814 28.5683 67.3712C28.6681 67.1091 28.849 66.9262 29.1021 66.8298C29.4152 66.7124 29.727 66.5802 30.0451 66.4195C30.4641 66.2094 30.7273 65.7818 30.7273 65.3171C30.7273 64.8523 30.4629 64.426 30.0438 64.2158C29.727 64.0577 29.4152 63.9254 29.1059 63.808C28.849 63.7104 28.6681 63.5274 28.5696 63.2679C28.4523 62.9552 28.3226 62.6425 28.163 62.3236C27.9534 61.9034 27.5194 61.6365 27.0455 61.6365H27.043C26.5678 61.6365 26.135 61.9047 25.9255 62.3274C25.7683 62.645 25.6373 62.9577 25.5238 63.2642C25.4241 63.5262 25.2432 63.7091 24.99 63.8055C24.6757 63.9242 24.3639 64.0552 24.0459 64.2158C23.6268 64.426 23.3636 64.8523 23.3636 65.3171C23.3636 65.7818 23.6268 66.2082 24.0459 66.4183H24.0471Z" fill="white"/>
<path d="M24.0471 66.4183C24.3652 66.5789 24.6782 66.7112 24.9863 66.8274C25.2445 66.9262 25.4253 67.1091 25.5226 67.365C25.6373 67.6777 25.7683 67.9891 25.9267 68.308C26.135 68.7307 26.569 69.0001 27.0442 69.0001H27.0467C27.5207 69.0001 27.9547 68.7332 28.1642 68.3117C28.3226 67.9941 28.4523 67.6814 28.5683 67.3712C28.6681 67.1091 28.849 66.9262 29.1021 66.8298C29.4152 66.7124 29.727 66.5802 30.0451 66.4195C30.4641 66.2094 30.7273 65.7818 30.7273 65.3171C30.7273 64.8523 30.4629 64.426 30.0438 64.2158C29.727 64.0577 29.4152 63.9254 29.1059 63.808C28.849 63.7104 28.6681 63.5274 28.5696 63.2679C28.4523 62.9552 28.3226 62.6425 28.163 62.3236C27.9534 61.9034 27.5194 61.6365 27.0455 61.6365H27.043C26.5678 61.6365 26.135 61.9047 25.9255 62.3274C25.7683 62.645 25.6373 62.9577 25.5238 63.2642C25.4241 63.5262 25.2432 63.7091 24.99 63.8055C24.6757 63.9242 24.3639 64.0552 24.0459 64.2158C23.6268 64.426 23.3636 64.8523 23.3636 65.3171C23.3636 65.7818 23.6268 66.2082 24.0459 66.4183H24.0471Z" fill="url(#paint6_linear_2134_805)"/>
<path d="M24.0471 66.4183C24.3652 66.5789 24.6782 66.7112 24.9863 66.8274C25.2445 66.9262 25.4253 67.1091 25.5226 67.365C25.6373 67.6777 25.7683 67.9891 25.9267 68.308C26.135 68.7307 26.569 69.0001 27.0442 69.0001H27.0467C27.5207 69.0001 27.9547 68.7332 28.1642 68.3117C28.3226 67.9941 28.4523 67.6814 28.5683 67.3712C28.6681 67.1091 28.849 66.9262 29.1021 66.8298C29.4152 66.7124 29.727 66.5802 30.0451 66.4195C30.4641 66.2094 30.7273 65.7818 30.7273 65.3171C30.7273 64.8523 30.4629 64.426 30.0438 64.2158C29.727 64.0577 29.4152 63.9254 29.1059 63.808C28.849 63.7104 28.6681 63.5274 28.5696 63.2679C28.4523 62.9552 28.3226 62.6425 28.163 62.3236C27.9534 61.9034 27.5194 61.6365 27.0455 61.6365H27.043C26.5678 61.6365 26.135 61.9047 25.9255 62.3274C25.7683 62.645 25.6373 62.9577 25.5238 63.2642C25.4241 63.5262 25.2432 63.7091 24.99 63.8055C24.6757 63.9242 24.3639 64.0552 24.0459 64.2158C23.6268 64.426 23.3636 64.8523 23.3636 65.3171C23.3636 65.7818 23.6268 66.2082 24.0459 66.4183H24.0471Z" fill="url(#paint7_linear_2134_805)"/>
</g>
<defs>
<linearGradient id="paint0_linear_2134_805" x1="56" y1="26.6716" x2="65.6611" y2="26.6716" gradientUnits="userSpaceOnUse">
<stop stop-color="#273E3D"/>
<stop offset="1" stop-color="#405151"/>
</linearGradient>
<linearGradient id="paint1_linear_2134_805" x1="56" y1="27.2252" x2="65.4517" y2="27.2252" gradientUnits="userSpaceOnUse">
<stop offset="0.465" stop-color="#33D7AE"/>
<stop offset="1" stop-color="#11A37F"/>
</linearGradient>
<linearGradient id="paint2_linear_2134_805" x1="54" y1="58.5443" x2="65.4513" y2="58.5443" gradientUnits="userSpaceOnUse">
<stop stop-color="#273E3D"/>
<stop offset="1" stop-color="#405151"/>
</linearGradient>
<linearGradient id="paint3_linear_2134_805" x1="54" y1="59.2013" x2="65.2031" y2="59.2013" gradientUnits="userSpaceOnUse">
<stop offset="0.465" stop-color="#33D7AE"/>
<stop offset="1" stop-color="#11A37F"/>
</linearGradient>
<linearGradient id="paint4_linear_2134_805" x1="28.2727" y1="18.0682" x2="34.4091" y2="18.0682" gradientUnits="userSpaceOnUse">
<stop stop-color="#273E3D"/>
<stop offset="1" stop-color="#405151"/>
</linearGradient>
<linearGradient id="paint5_linear_2134_805" x1="28.2727" y1="18.4318" x2="34.2761" y2="18.4318" gradientUnits="userSpaceOnUse">
<stop offset="0.465" stop-color="#33D7AE"/>
<stop offset="1" stop-color="#11A37F"/>
</linearGradient>
<linearGradient id="paint6_linear_2134_805" x1="23.3636" y1="65.3183" x2="30.7273" y2="65.3183" gradientUnits="userSpaceOnUse">
<stop stop-color="#273E3D"/>
<stop offset="1" stop-color="#405151"/>
</linearGradient>
<linearGradient id="paint7_linear_2134_805" x1="23.3636" y1="65.7546" x2="30.5677" y2="65.7546" gradientUnits="userSpaceOnUse">
<stop offset="0.465" stop-color="#33D7AE"/>
<stop offset="1" stop-color="#11A37F"/>
</linearGradient>
</defs>
</svg>
