<svg xmlns="http://www.w3.org/2000/svg" width="25" height="24" viewBox="0 0 25 24" fill="none">
    <path d="M14.75 4H10.25C7.068 4 5.477 4 4.489 5.004C3.501 6.008 3.5 7.624 3.5 10.857V13.143C3.5 16.375 3.5 17.992 4.489 18.996C5.477 20 7.068 20 10.25 20H14.75C17.932 20 19.523 20 20.512 18.996C21.501 17.992 21.5 16.376 21.5 13.143V10.857C21.5 7.625 21.5 6.008 20.512 5.004C19.523 4 17.932 4 14.75 4Z" stroke="white" stroke-width="2"/>
    <path d="M7.5 8H10.5" stroke="white" stroke-width="2" stroke-linecap="round"/>
    <path d="M19.5 16H17.5C16.557 16 16.086 16 15.793 15.707C15.5 15.414 15.5 14.943 15.5 14C15.5 13.057 15.5 12.586 15.793 12.293C16.086 12 16.557 12 17.5 12H19.5C20.443 12 20.914 12 21.207 12.293C21.5 12.586 21.5 13.057 21.5 14C21.5 14.943 21.5 15.414 21.207 15.707C20.914 16 20.443 16 19.5 16Z" stroke="white" stroke-width="2"/>
</svg>